{
  "asset": {
    "generator": "FBX2glTF v0.9.7",
    "version": "2.0"
  },
  "scene": 0,
  "extensionsUsed": [
    "KHR_materials_unlit"
  ],
  "buffers": [
    {
      "byteLength": 1940,
      "uri": "BRB_bag.bin"
    }
  ],
  "bufferViews": [
    {
      "buffer": 0,
      "byteLength": 372,
      "byteOffset": 0,
      "target": 34963
    },
    {
      "buffer": 0,
      "byteLength": 588,
      "byteOffset": 372,
      "target": 34962
    },
    {
      "buffer": 0,
      "byteLength": 588,
      "byteOffset": 960,
      "target": 34962
    },
    {
      "buffer": 0,
      "byteLength": 392,
      "byteOffset": 1548,
      "target": 34962
    }
  ],
  "scenes": [
    {
      "name": "Root Scene",
      "nodes": [
        0
      ]
    }
  ],
  "accessors": [
    {
      "componentType": 5123,
      "type": "SCALAR",
      "count": 186,
      "bufferView": 0,
      "byteOffset": 0
    },
    {
      "componentType": 5126,
      "type": "VEC3",
      "count": 49,
      "bufferView": 1,
      "byteOffset": 0,
      "min": [
        -0.112742736935616,
        -0.148658365011215,
        0.00288499821908772
      ],
      "max": [
        0.0999473109841347,
        0.150515496730804,
        0.162475883960724
      ]
    },
    {
      "componentType": 5126,
      "type": "VEC3",
      "count": 49,
      "bufferView": 2,
      "byteOffset": 0
    },
    {
      "componentType": 5126,
      "type": "VEC2",
      "count": 49,
      "bufferView": 3,
      "byteOffset": 0
    }
  ],
  "images": [
    {
      "name": "Map #9",
      "uri": "../textures/BRB_StandardUnits_texture.png"
    }
  ],
  "samplers": [
    {}
  ],
  "textures": [
    {
      "name": "Map #9",
      "sampler": 0,
      "source": 0
    }
  ],
  "materials": [
    {
      "name": "BRB_Standard_Units",
      "alphaMode": "OPAQUE",
      "extras": {
        "fromFBX": {
          "shadingModel": "Phong",
          "isTruePBR": false
        }
      },
      "pbrMetallicRoughness": {
        "baseColorTexture": {
          "index": 0,
          "texCoord": 0
        },
        "baseColorFactor": [
          1,
          1,
          1,
          1
        ],
        "metallicFactor": 0,
        "roughnessFactor": 1
      },
      "extensions": {
        "KHR_materials_unlit": {}
      }
    }
  ],
  "meshes": [
    {
      "name": "WK_Xtra_bag",
      "primitives": [
        {
          "material": 0,
          "mode": 4,
          "attributes": {
            "NORMAL": 2,
            "POSITION": 1,
            "TEXCOORD_0": 3
          },
          "indices": 0
        }
      ]
    }
  ],
  "nodes": [
    {
      "name": "RootNode",
      "translation": [
        0,
        0,
        0
      ],
      "rotation": [
        0,
        0,
        0,
        1
      ],
      "scale": [
        1,
        1,
        1
      ],
      "children": [
        1
      ]
    },
    {
      "name": "WK_Xtra_bag",
      "translation": [
        0,
        0,
        0
      ],
      "rotation": [
        -0.70710676908493,
        0,
        0,
        0.70710676908493
      ],
      "scale": [
        2.53999996185303,
        2.53999996185303,
        2.53999996185303
      ],
      "mesh": 0
    }
  ]
}