{
  "asset": {
    "generator": "FBX2glTF v0.9.7",
    "version": "2.0"
  },
  "scene": 0,
  "extensionsUsed": [
    "KHR_materials_unlit"
  ],
  "buffers": [
    {
      "byteLength": 1444,
      "uri": "BRB_weapon_spear.bin"
    }
  ],
  "bufferViews": [
    {
      "buffer": 0,
      "byteLength": 204,
      "byteOffset": 0,
      "target": 34963
    },
    {
      "buffer": 0,
      "byteLength": 372,
      "byteOffset": 204,
      "target": 34962
    },
    {
      "buffer": 0,
      "byteLength": 372,
      "byteOffset": 576,
      "target": 34962
    },
    {
      "buffer": 0,
      "byteLength": 248,
      "byteOffset": 948,
      "target": 34962
    },
    {
      "buffer": 0,
      "byteLength": 248,
      "byteOffset": 1196,
      "target": 34962
    }
  ],
  "scenes": [
    {
      "name": "Root Scene",
      "nodes": [
        0
      ]
    }
  ],
  "accessors": [
    {
      "componentType": 5123,
      "type": "SCALAR",
      "count": 102,
      "bufferView": 0,
      "byteOffset": 0
    },
    {
      "componentType": 5126,
      "type": "VEC3",
      "count": 31,
      "bufferView": 1,
      "byteOffset": 0,
      "min": [
        -0.318230211734772,
        -0.0150000713765621,
        -0.0339006036520004
      ],
      "max": [
        0.450366199016571,
        0.0130238337442279,
        0.0324587225914001
      ]
    },
    {
      "componentType": 5126,
      "type": "VEC3",
      "count": 31,
      "bufferView": 2,
      "byteOffset": 0
    },
    {
      "componentType": 5126,
      "type": "VEC2",
      "count": 31,
      "bufferView": 3,
      "byteOffset": 0
    },
    {
      "componentType": 5126,
      "type": "VEC2",
      "count": 31,
      "bufferView": 4,
      "byteOffset": 0
    }
  ],
  "images": [
    {
      "name": "Map #9",
      "uri": "../textures/BRB_StandardUnits_texture.png"
    }
  ],
  "samplers": [
    {}
  ],
  "textures": [
    {
      "name": "Map #9",
      "sampler": 0,
      "source": 0
    }
  ],
  "materials": [
    {
      "name": "BRB_Standard_Units",
      "alphaMode": "OPAQUE",
      "extras": {
        "fromFBX": {
          "shadingModel": "Phong",
          "isTruePBR": false
        }
      },
      "pbrMetallicRoughness": {
        "baseColorTexture": {
          "index": 0,
          "texCoord": 0
        },
        "baseColorFactor": [
          1,
          1,
          1,
          1
        ],
        "metallicFactor": 0,
        "roughnessFactor": 1
      },
      "extensions": {
        "KHR_materials_unlit": {}
      }
    }
  ],
  "meshes": [
    {
      "name": "BRB_weapon_spear",
      "primitives": [
        {
          "material": 0,
          "mode": 4,
          "attributes": {
            "NORMAL": 2,
            "POSITION": 1,
            "TEXCOORD_0": 3,
            "TEXCOORD_1": 4
          },
          "indices": 0
        }
      ]
    }
  ],
  "nodes": [
    {
      "name": "RootNode",
      "translation": [
        0,
        0,
        0
      ],
      "rotation": [
        0,
        0,
        0,
        1
      ],
      "scale": [
        1,
        1,
        1
      ],
      "children": [
        1
      ]
    },
    {
      "name": "Bip001",
      "translation": [
        1.21760996265225e-23,
        0.734849154949188,
        -0.0490949228405952
      ],
      "rotation": [
        -0.500000357627869,
        -0.499999642372131,
        -0.499999642372131,
        0.500000357627869
      ],
      "scale": [
        2.53999996185303,
        2.53999996185303,
        2.53999996185303
      ],
      "children": [
        2
      ]
    },
    {
      "name": "Bip001 Pelvis",
      "translation": [
        0,
        0,
        0
      ],
      "rotation": [
        -0.5,
        -0.5,
        -0.499999314546585,
        0.500000715255737
      ],
      "scale": [
        1,
        0.999999940395355,
        0.999999940395355
      ],
      "children": [
        3
      ]
    },
    {
      "name": "Bip001 Spine",
      "translation": [
        0.0443600080907345,
        -0.000113483663881198,
        6.16758555338492e-8
      ],
      "rotation": [
        -0.00000208047595151584,
        -6.93675985985465e-7,
        0.000398158997995779,
        0.999999940395355
      ],
      "scale": [
        1,
        0.999999940395355,
        0.999999940395355
      ],
      "children": [
        4
      ]
    },
    {
      "name": "Bip001 R Clavicle",
      "translation": [
        0.12926684319973,
        0.0000106406205304665,
        -0.0255353022366762
      ],
      "rotation": [
        -0.610524117946625,
        0.0292932484298944,
        0.791146993637085,
        -0.0221035126596689
      ],
      "scale": [
        1.00000011920929,
        1,
        1
      ],
      "children": [
        5
      ]
    },
    {
      "name": "Bip001 R UpperArm",
      "translation": [
        0.0642493292689323,
        1.19209286886246e-9,
        3.81469718035987e-8
      ],
      "rotation": [
        -0.06110929697752,
        -0.208064541220665,
        -0.0101710464805365,
        0.976151287555695
      ],
      "scale": [
        0.999999940395355,
        1.00000011920929,
        1
      ],
      "children": [
        6
      ]
    },
    {
      "name": "Bip001 R Forearm",
      "translation": [
        0.117239311337471,
        0,
        7.10542719878232e-17
      ],
      "rotation": [
        -5.86512826921031e-18,
        1.10490749583444e-17,
        -0.0998334139585495,
        0.995004177093506
      ],
      "scale": [
        1.00000011920929,
        0.999999940395355,
        1
      ],
      "children": [
        7
      ]
    },
    {
      "name": "Bip001 R Hand",
      "translation": [
        0.0897891819477081,
        0,
        -7.10542719878232e-17
      ],
      "rotation": [
        0.706403851509094,
        0.0244020204991102,
        0.0244213957339525,
        0.706966578960419
      ],
      "scale": [
        1,
        1.00000011920929,
        1.00000011920929
      ],
      "children": [
        8
      ]
    },
    {
      "name": "R_hand_container",
      "translation": [
        0.0315364822745323,
        0.0122476574033499,
        0.0238299407064915
      ],
      "rotation": [
        0.0656185075640678,
        -0.686120390892029,
        0.0778611227869987,
        0.720326781272888
      ],
      "scale": [
        1,
        1,
        1
      ],
      "children": [
        9
      ]
    },
    {
      "name": "BRB_weapon_spear",
      "translation": [
        0.0335429087281227,
        0.38224333524704,
        -0.0566380694508553
      ],
      "rotation": [
        0.225223824381828,
        -0.249107018113136,
        0.630801796913147,
        0.699506282806396
      ],
      "scale": [
        0.99999988079071,
        1.00000035762787,
        1.00000011920929
      ],
      "mesh": 0
    }
  ]
}