{
  "asset": {
    "generator": "FBX2glTF v0.9.7",
    "version": "2.0"
  },
  "scene": 0,
  "extensionsUsed": [
    "KHR_materials_unlit"
  ],
  "buffers": [
    {
      "byteLength": 1804,
      "uri": "BRB_weapon_staff_B.bin"
    }
  ],
  "bufferViews": [
    {
      "buffer": 0,
      "byteLength": 324,
      "byteOffset": 0,
      "target": 34963
    },
    {
      "buffer": 0,
      "byteLength": 444,
      "byteOffset": 324,
      "target": 34962
    },
    {
      "buffer": 0,
      "byteLength": 444,
      "byteOffset": 768,
      "target": 34962
    },
    {
      "buffer": 0,
      "byteLength": 296,
      "byteOffset": 1212,
      "target": 34962
    },
    {
      "buffer": 0,
      "byteLength": 296,
      "byteOffset": 1508,
      "target": 34962
    }
  ],
  "scenes": [
    {
      "name": "Root Scene",
      "nodes": [
        0
      ]
    }
  ],
  "accessors": [
    {
      "componentType": 5123,
      "type": "SCALAR",
      "count": 162,
      "bufferView": 0,
      "byteOffset": 0
    },
    {
      "componentType": 5126,
      "type": "VEC3",
      "count": 37,
      "bufferView": 1,
      "byteOffset": 0,
      "min": [
        -0.361700057983398,
        -0.0359417796134949,
        -0.0741345211863518
      ],
      "max": [
        0.361496359109879,
        0.0430496782064438,
        0.0737142935395241
      ]
    },
    {
      "componentType": 5126,
      "type": "VEC3",
      "count": 37,
      "bufferView": 2,
      "byteOffset": 0
    },
    {
      "componentType": 5126,
      "type": "VEC2",
      "count": 37,
      "bufferView": 3,
      "byteOffset": 0
    },
    {
      "componentType": 5126,
      "type": "VEC2",
      "count": 37,
      "bufferView": 4,
      "byteOffset": 0
    }
  ],
  "images": [
    {
      "name": "Map #9",
      "uri": "../textures/BRB_StandardUnits_texture.png"
    }
  ],
  "samplers": [
    {}
  ],
  "textures": [
    {
      "name": "Map #9",
      "sampler": 0,
      "source": 0
    }
  ],
  "materials": [
    {
      "name": "BRB_Standard_Units",
      "alphaMode": "OPAQUE",
      "extras": {
        "fromFBX": {
          "shadingModel": "Phong",
          "isTruePBR": false
        }
      },
      "pbrMetallicRoughness": {
        "baseColorTexture": {
          "index": 0,
          "texCoord": 0
        },
        "baseColorFactor": [
          1,
          1,
          1,
          1
        ],
        "metallicFactor": 0,
        "roughnessFactor": 1
      },
      "extensions": {
        "KHR_materials_unlit": {}
      }
    }
  ],
  "meshes": [
    {
      "name": "BRB_weapon_staff_B",
      "primitives": [
        {
          "material": 0,
          "mode": 4,
          "attributes": {
            "NORMAL": 2,
            "POSITION": 1,
            "TEXCOORD_0": 3,
            "TEXCOORD_1": 4
          },
          "indices": 0
        }
      ]
    }
  ],
  "nodes": [
    {
      "name": "RootNode",
      "translation": [
        0,
        0,
        0
      ],
      "rotation": [
        0,
        0,
        0,
        1
      ],
      "scale": [
        1,
        1,
        1
      ],
      "children": [
        1
      ]
    },
    {
      "name": "Bip001",
      "translation": [
        1.21760996265225e-23,
        0.734849154949188,
        -0.0490949228405952
      ],
      "rotation": [
        -0.500000357627869,
        -0.499999642372131,
        -0.499999642372131,
        0.500000357627869
      ],
      "scale": [
        2.53999996185303,
        2.53999996185303,
        2.53999996185303
      ],
      "children": [
        2
      ]
    },
    {
      "name": "Bip001 Pelvis",
      "translation": [
        0,
        0,
        0
      ],
      "rotation": [
        -0.5,
        -0.5,
        -0.499999314546585,
        0.500000715255737
      ],
      "scale": [
        1,
        0.999999940395355,
        0.999999940395355
      ],
      "children": [
        3
      ]
    },
    {
      "name": "Bip001 Spine",
      "translation": [
        0.0443600080907345,
        -0.000113483663881198,
        6.16758555338492e-8
      ],
      "rotation": [
        -0.00000208047595151584,
        -6.93675985985465e-7,
        0.000398158997995779,
        0.999999940395355
      ],
      "scale": [
        1,
        0.999999940395355,
        0.999999940395355
      ],
      "children": [
        4
      ]
    },
    {
      "name": "Bip001 L Clavicle",
      "translation": [
        0.12926684319973,
        0.0000104987620943575,
        0.0255353059619665
      ],
      "rotation": [
        0.61052405834198,
        -0.0292954575270414,
        0.79114693403244,
        -0.0221052058041096
      ],
      "scale": [
        1,
        0.999999940395355,
        1
      ],
      "children": [
        5
      ]
    },
    {
      "name": "Bip001 L UpperArm",
      "translation": [
        0.0642493292689323,
        1.19209286886246e-9,
        -3.81469718035987e-8
      ],
      "rotation": [
        0.0611093007028103,
        0.208064541220665,
        -0.0101710641756654,
        0.976151287555695
      ],
      "scale": [
        1,
        1.00000011920929,
        1.00000011920929
      ],
      "children": [
        6
      ]
    },
    {
      "name": "Bip001 L Forearm",
      "translation": [
        0.117239281535149,
        -4.76837147544984e-9,
        7.10542719878232e-17
      ],
      "rotation": [
        -1.68160574206947e-17,
        4.09144872228531e-17,
        -0.0998334437608719,
        0.995004177093506
      ],
      "scale": [
        0.999999940395355,
        1,
        1
      ],
      "children": [
        7
      ]
    },
    {
      "name": "Bip001 L Hand",
      "translation": [
        0.0897891595959663,
        0,
        0
      ],
      "rotation": [
        -0.706403851509094,
        -0.0244019981473684,
        0.0244214162230492,
        0.706966578960419
      ],
      "scale": [
        0.999999940395355,
        1,
        1
      ],
      "children": [
        8
      ]
    },
    {
      "name": "L_hand_container",
      "translation": [
        0.0373671539127827,
        0.0157113652676344,
        -0.0242995824664831
      ],
      "rotation": [
        0.720326125621796,
        0.0778613537549973,
        -0.686121165752411,
        0.0656173974275589
      ],
      "scale": [
        1,
        1.00000011920929,
        1.00000011920929
      ],
      "children": [
        9
      ]
    },
    {
      "name": "BRB_weapon_staff_B",
      "translation": [
        0.0327276699244976,
        -0.380036294460297,
        -0.0502597242593765
      ],
      "rotation": [
        -0.249107167124748,
        0.225224286317825,
        0.699506163597107,
        0.630801677703857
      ],
      "scale": [
        0.99999988079071,
        1.00000011920929,
        0.999999940395355
      ],
      "mesh": 0
    }
  ]
}