{
  "asset": {
    "generator": "FBX2glTF v0.9.7",
    "version": "2.0"
  },
  "scene": 0,
  "extensionsUsed": [
    "KHR_materials_unlit"
  ],
  "buffers": [
    {
      "byteLength": 8900,
      "uri": "boltthrower_boltthrower_04_death.bin"
    }
  ],
  "bufferViews": [
    {
      "buffer": 0,
      "byteLength": 100,
      "byteOffset": 0
    },
    {
      "buffer": 0,
      "byteLength": 300,
      "byteOffset": 100
    },
    {
      "buffer": 0,
      "byteLength": 400,
      "byteOffset": 400
    },
    {
      "buffer": 0,
      "byteLength": 300,
      "byteOffset": 800
    },
    {
      "buffer": 0,
      "byteLength": 400,
      "byteOffset": 1100
    },
    {
      "buffer": 0,
      "byteLength": 300,
      "byteOffset": 1500
    },
    {
      "buffer": 0,
      "byteLength": 400,
      "byteOffset": 1800
    },
    {
      "buffer": 0,
      "byteLength": 300,
      "byteOffset": 2200
    },
    {
      "buffer": 0,
      "byteLength": 400,
      "byteOffset": 2500
    },
    {
      "buffer": 0,
      "byteLength": 300,
      "byteOffset": 2900
    },
    {
      "buffer": 0,
      "byteLength": 400,
      "byteOffset": 3200
    },
    {
      "buffer": 0,
      "byteLength": 300,
      "byteOffset": 3600
    },
    {
      "buffer": 0,
      "byteLength": 300,
      "byteOffset": 3900
    },
    {
      "buffer": 0,
      "byteLength": 400,
      "byteOffset": 4200
    },
    {
      "buffer": 0,
      "byteLength": 400,
      "byteOffset": 4600
    },
    {
      "buffer": 0,
      "byteLength": 300,
      "byteOffset": 5000
    },
    {
      "buffer": 0,
      "byteLength": 400,
      "byteOffset": 5300
    },
    {
      "buffer": 0,
      "byteLength": 400,
      "byteOffset": 5700
    },
    {
      "buffer": 0,
      "byteLength": 300,
      "byteOffset": 6100
    },
    {
      "buffer": 0,
      "byteLength": 400,
      "byteOffset": 6400
    },
    {
      "buffer": 0,
      "byteLength": 300,
      "byteOffset": 6800
    },
    {
      "buffer": 0,
      "byteLength": 400,
      "byteOffset": 7100
    },
    {
      "buffer": 0,
      "byteLength": 300,
      "byteOffset": 7500
    },
    {
      "buffer": 0,
      "byteLength": 400,
      "byteOffset": 7800
    },
    {
      "buffer": 0,
      "byteLength": 300,
      "byteOffset": 8200
    },
    {
      "buffer": 0,
      "byteLength": 400,
      "byteOffset": 8500
    }
  ],
  "scenes": [
    {
      "name": "Root Scene",
      "nodes": [
        0
      ]
    }
  ],
  "accessors": [
    {
      "componentType": 5126,
      "type": "SCALAR",
      "count": 25,
      "bufferView": 0,
      "byteOffset": 0,
      "min": [
        0
      ],
      "max": [
        1
      ]
    },
    {
      "componentType": 5126,
      "type": "VEC3",
      "count": 25,
      "bufferView": 1,
      "byteOffset": 0
    },
    {
      "componentType": 5126,
      "type": "VEC4",
      "count": 25,
      "bufferView": 2,
      "byteOffset": 0
    },
    {
      "componentType": 5126,
      "type": "VEC3",
      "count": 25,
      "bufferView": 3,
      "byteOffset": 0
    },
    {
      "componentType": 5126,
      "type": "VEC4",
      "count": 25,
      "bufferView": 4,
      "byteOffset": 0
    },
    {
      "componentType": 5126,
      "type": "VEC3",
      "count": 25,
      "bufferView": 5,
      "byteOffset": 0
    },
    {
      "componentType": 5126,
      "type": "VEC4",
      "count": 25,
      "bufferView": 6,
      "byteOffset": 0
    },
    {
      "componentType": 5126,
      "type": "VEC3",
      "count": 25,
      "bufferView": 7,
      "byteOffset": 0
    },
    {
      "componentType": 5126,
      "type": "VEC4",
      "count": 25,
      "bufferView": 8,
      "byteOffset": 0
    },
    {
      "componentType": 5126,
      "type": "VEC3",
      "count": 25,
      "bufferView": 9,
      "byteOffset": 0
    },
    {
      "componentType": 5126,
      "type": "VEC4",
      "count": 25,
      "bufferView": 10,
      "byteOffset": 0
    },
    {
      "componentType": 5126,
      "type": "VEC3",
      "count": 25,
      "bufferView": 11,
      "byteOffset": 0
    },
    {
      "componentType": 5126,
      "type": "VEC3",
      "count": 25,
      "bufferView": 12,
      "byteOffset": 0
    },
    {
      "componentType": 5126,
      "type": "VEC4",
      "count": 25,
      "bufferView": 13,
      "byteOffset": 0
    },
    {
      "componentType": 5126,
      "type": "VEC4",
      "count": 25,
      "bufferView": 14,
      "byteOffset": 0
    },
    {
      "componentType": 5126,
      "type": "VEC3",
      "count": 25,
      "bufferView": 15,
      "byteOffset": 0
    },
    {
      "componentType": 5126,
      "type": "VEC4",
      "count": 25,
      "bufferView": 16,
      "byteOffset": 0
    },
    {
      "componentType": 5126,
      "type": "VEC4",
      "count": 25,
      "bufferView": 17,
      "byteOffset": 0
    },
    {
      "componentType": 5126,
      "type": "VEC3",
      "count": 25,
      "bufferView": 18,
      "byteOffset": 0
    },
    {
      "componentType": 5126,
      "type": "VEC4",
      "count": 25,
      "bufferView": 19,
      "byteOffset": 0
    },
    {
      "componentType": 5126,
      "type": "VEC3",
      "count": 25,
      "bufferView": 20,
      "byteOffset": 0
    },
    {
      "componentType": 5126,
      "type": "VEC4",
      "count": 25,
      "bufferView": 21,
      "byteOffset": 0
    },
    {
      "componentType": 5126,
      "type": "VEC3",
      "count": 25,
      "bufferView": 22,
      "byteOffset": 0
    },
    {
      "componentType": 5126,
      "type": "VEC4",
      "count": 25,
      "bufferView": 23,
      "byteOffset": 0
    },
    {
      "componentType": 5126,
      "type": "VEC3",
      "count": 25,
      "bufferView": 24,
      "byteOffset": 0
    },
    {
      "componentType": 5126,
      "type": "VEC4",
      "count": 25,
      "bufferView": 25,
      "byteOffset": 0
    }
  ],
  "samplers": [
    {}
  ],
  "animations": [
    {
      "name": "Take 001",
      "channels": [
        {
          "sampler": 0,
          "target": {
            "node": 2,
            "path": "translation"
          }
        },
        {
          "sampler": 1,
          "target": {
            "node": 2,
            "path": "rotation"
          }
        },
        {
          "sampler": 2,
          "target": {
            "node": 3,
            "path": "translation"
          }
        },
        {
          "sampler": 3,
          "target": {
            "node": 3,
            "path": "rotation"
          }
        },
        {
          "sampler": 4,
          "target": {
            "node": 4,
            "path": "translation"
          }
        },
        {
          "sampler": 5,
          "target": {
            "node": 4,
            "path": "rotation"
          }
        },
        {
          "sampler": 6,
          "target": {
            "node": 5,
            "path": "translation"
          }
        },
        {
          "sampler": 7,
          "target": {
            "node": 5,
            "path": "rotation"
          }
        },
        {
          "sampler": 8,
          "target": {
            "node": 6,
            "path": "translation"
          }
        },
        {
          "sampler": 9,
          "target": {
            "node": 6,
            "path": "rotation"
          }
        },
        {
          "sampler": 10,
          "target": {
            "node": 7,
            "path": "translation"
          }
        },
        {
          "sampler": 11,
          "target": {
            "node": 8,
            "path": "translation"
          }
        },
        {
          "sampler": 12,
          "target": {
            "node": 8,
            "path": "rotation"
          }
        },
        {
          "sampler": 13,
          "target": {
            "node": 9,
            "path": "rotation"
          }
        },
        {
          "sampler": 14,
          "target": {
            "node": 10,
            "path": "translation"
          }
        },
        {
          "sampler": 15,
          "target": {
            "node": 10,
            "path": "rotation"
          }
        },
        {
          "sampler": 16,
          "target": {
            "node": 11,
            "path": "rotation"
          }
        },
        {
          "sampler": 17,
          "target": {
            "node": 12,
            "path": "translation"
          }
        },
        {
          "sampler": 18,
          "target": {
            "node": 12,
            "path": "rotation"
          }
        },
        {
          "sampler": 19,
          "target": {
            "node": 13,
            "path": "translation"
          }
        },
        {
          "sampler": 20,
          "target": {
            "node": 13,
            "path": "rotation"
          }
        },
        {
          "sampler": 21,
          "target": {
            "node": 14,
            "path": "translation"
          }
        },
        {
          "sampler": 22,
          "target": {
            "node": 14,
            "path": "rotation"
          }
        },
        {
          "sampler": 23,
          "target": {
            "node": 15,
            "path": "translation"
          }
        },
        {
          "sampler": 24,
          "target": {
            "node": 15,
            "path": "rotation"
          }
        }
      ],
      "samplers": [
        {
          "input": 0,
          "interpolation": "LINEAR",
          "output": 1
        },
        {
          "input": 0,
          "interpolation": "LINEAR",
          "output": 2
        },
        {
          "input": 0,
          "interpolation": "LINEAR",
          "output": 3
        },
        {
          "input": 0,
          "interpolation": "LINEAR",
          "output": 4
        },
        {
          "input": 0,
          "interpolation": "LINEAR",
          "output": 5
        },
        {
          "input": 0,
          "interpolation": "LINEAR",
          "output": 6
        },
        {
          "input": 0,
          "interpolation": "LINEAR",
          "output": 7
        },
        {
          "input": 0,
          "interpolation": "LINEAR",
          "output": 8
        },
        {
          "input": 0,
          "interpolation": "LINEAR",
          "output": 9
        },
        {
          "input": 0,
          "interpolation": "LINEAR",
          "output": 10
        },
        {
          "input": 0,
          "interpolation": "LINEAR",
          "output": 11
        },
        {
          "input": 0,
          "interpolation": "LINEAR",
          "output": 12
        },
        {
          "input": 0,
          "interpolation": "LINEAR",
          "output": 13
        },
        {
          "input": 0,
          "interpolation": "LINEAR",
          "output": 14
        },
        {
          "input": 0,
          "interpolation": "LINEAR",
          "output": 15
        },
        {
          "input": 0,
          "interpolation": "LINEAR",
          "output": 16
        },
        {
          "input": 0,
          "interpolation": "LINEAR",
          "output": 17
        },
        {
          "input": 0,
          "interpolation": "LINEAR",
          "output": 18
        },
        {
          "input": 0,
          "interpolation": "LINEAR",
          "output": 19
        },
        {
          "input": 0,
          "interpolation": "LINEAR",
          "output": 20
        },
        {
          "input": 0,
          "interpolation": "LINEAR",
          "output": 21
        },
        {
          "input": 0,
          "interpolation": "LINEAR",
          "output": 22
        },
        {
          "input": 0,
          "interpolation": "LINEAR",
          "output": 23
        },
        {
          "input": 0,
          "interpolation": "LINEAR",
          "output": 24
        },
        {
          "input": 0,
          "interpolation": "LINEAR",
          "output": 25
        }
      ]
    }
  ],
  "nodes": [
    {
      "name": "RootNode",
      "translation": [
        0,
        0,
        0
      ],
      "rotation": [
        0,
        0,
        0,
        1
      ],
      "scale": [
        1,
        1,
        1
      ],
      "children": [
        1
      ]
    },
    {
      "name": "BONE_BASE",
      "translation": [
        0,
        0,
        0
      ],
      "rotation": [
        -0.70710676908493,
        -4.21468477895814e-8,
        -4.21468477895814e-8,
        0.70710676908493
      ],
      "scale": [
        2.53999996185303,
        2.53999996185303,
        2.53999996185303
      ],
      "children": [
        2
      ]
    },
    {
      "name": "Bone_Ballista",
      "translation": [
        -1.24690813230188e-9,
        0.0104598235338926,
        0.121392622590065
      ],
      "rotation": [
        0.707095742225647,
        0.707095623016357,
        0.00396105414256454,
        0.00396111654117703
      ],
      "scale": [
        1,
        1,
        1
      ],
      "children": [
        3,
        4,
        5,
        6,
        7,
        8,
        10,
        12,
        13,
        14,
        15
      ]
    },
    {
      "name": "Bone_L_block",
      "translation": [
        -0.0140909664332867,
        0.0927860885858536,
        -0.0891764014959335
      ],
      "rotation": [
        -4.58039366435514e-8,
        -0.0436189770698547,
        -4.55806308252704e-8,
        0.999048233032227
      ],
      "scale": [
        1,
        1,
        1
      ]
    },
    {
      "name": "Bone_front",
      "translation": [
        -0.269409447908401,
        7.65919665468573e-8,
        -0.168481171131134
      ],
      "rotation": [
        -0.500000059604645,
        -0.499999970197678,
        -0.499999940395355,
        0.500000059604645
      ],
      "scale": [
        1,
        1,
        1
      ]
    },
    {
      "name": "Bone_R_block",
      "translation": [
        -0.0140910241752863,
        -0.0987861007452011,
        -0.0891764461994171
      ],
      "rotation": [
        -4.58039366435514e-8,
        -0.0436189770698547,
        -4.55806308252704e-8,
        0.999048233032227
      ],
      "scale": [
        1,
        1,
        1
      ]
    },
    {
      "name": "Bone_Bolt",
      "translation": [
        0.235381439328194,
        -7.85291192073601e-8,
        -0.147212594747543
      ],
      "rotation": [
        1.58604990474487e-7,
        0.996342599391937,
        2.93958244412806e-8,
        0.0854483023285866
      ],
      "scale": [
        1,
        1,
        1
      ]
    },
    {
      "name": "Bone_string",
      "translation": [
        0.266702651977539,
        -6.25848741719892e-8,
        -0.13973830640316
      ],
      "rotation": [
        0.70710676908493,
        -1.06770180252624e-7,
        -2.30404651802019e-7,
        0.70710676908493
      ],
      "scale": [
        1,
        1,
        1
      ]
    },
    {
      "name": "Bone_L_wing_A",
      "translation": [
        -0.171669274568558,
        0.11496065557003,
        -0.229471430182457
      ],
      "rotation": [
        0.771853446960449,
        0.63430243730545,
        0.0336999222636223,
        0.0276942662894726
      ],
      "scale": [
        1,
        1,
        1
      ],
      "children": [
        9
      ]
    },
    {
      "name": "Bone_L_wing_B",
      "translation": [
        0.19068156182766,
        -3.55271359939116e-17,
        -7.10542719878232e-17
      ],
      "rotation": [
        -1.82022374950463e-9,
        3.25031912495888e-9,
        0.488612562417984,
        0.872500836849213
      ],
      "scale": [
        1,
        1,
        1
      ]
    },
    {
      "name": "Bone_R_wing_A",
      "translation": [
        -0.171669349074364,
        -0.114960581064224,
        -0.229471474885941
      ],
      "rotation": [
        0.0276943035423756,
        -0.0336997471749783,
        -0.634302496910095,
        0.771853387355804
      ],
      "scale": [
        1,
        0.99999988079071,
        1
      ],
      "children": [
        11
      ]
    },
    {
      "name": "Bone_R_wing_B",
      "translation": [
        0.190681606531143,
        0,
        0
      ],
      "rotation": [
        8.31655577737678e-10,
        4.1917855297946e-10,
        0.450089573860168,
        0.892983436584473
      ],
      "scale": [
        1,
        1,
        1
      ]
    },
    {
      "name": "Bone_R_wheel_A",
      "translation": [
        -0.102530583739281,
        -0.233411401510239,
        -0.00668597221374512
      ],
      "rotation": [
        -0.461862415075302,
        0.500122904777527,
        -0.499877154827118,
        0.535427868366241
      ],
      "scale": [
        1,
        1,
        1
      ]
    },
    {
      "name": "Bone_L_wheel_A",
      "translation": [
        -0.102530419826508,
        0.267138481140137,
        -0.000850152922794223
      ],
      "rotation": [
        0.508806109428406,
        0.508806169033051,
        -0.491035997867584,
        -0.491035908460617
      ],
      "scale": [
        1,
        1,
        1
      ]
    },
    {
      "name": "Bone_L_wheel_B",
      "translation": [
        0.297414392232895,
        0.209794819355011,
        0.0230390727519989
      ],
      "rotation": [
        0.187528759241104,
        0.293245941400528,
        0.623139262199402,
        0.70038366317749
      ],
      "scale": [
        1,
        1,
        1
      ]
    },
    {
      "name": "Bone_R_wheel_B",
      "translation": [
        0.291396051645279,
        -0.229406520724297,
        0.0239288136363029
      ],
      "rotation": [
        0.64350825548172,
        -0.618987023830414,
        -0.331567466259003,
        0.304655879735947
      ],
      "scale": [
        1,
        1,
        1
      ]
    }
  ]
}