{
  "asset": {
    "generator": "FBX2glTF v0.9.7",
    "version": "2.0"
  },
  "scene": 0,
  "extensionsUsed": [
    "KHR_materials_unlit"
  ],
  "buffers": [
    {
      "byteLength": 46060,
      "uri": "cavalry_spear_cavalry_spear_10_death_a.bin"
    }
  ],
  "bufferViews": [
    {
      "buffer": 0,
      "byteLength": 196,
      "byteOffset": 0
    },
    {
      "buffer": 0,
      "byteLength": 588,
      "byteOffset": 196
    },
    {
      "buffer": 0,
      "byteLength": 784,
      "byteOffset": 784
    },
    {
      "buffer": 0,
      "byteLength": 588,
      "byteOffset": 1568
    },
    {
      "buffer": 0,
      "byteLength": 784,
      "byteOffset": 2156
    },
    {
      "buffer": 0,
      "byteLength": 588,
      "byteOffset": 2940
    },
    {
      "buffer": 0,
      "byteLength": 784,
      "byteOffset": 3528
    },
    {
      "buffer": 0,
      "byteLength": 784,
      "byteOffset": 4312
    },
    {
      "buffer": 0,
      "byteLength": 588,
      "byteOffset": 5096
    },
    {
      "buffer": 0,
      "byteLength": 784,
      "byteOffset": 5684
    },
    {
      "buffer": 0,
      "byteLength": 784,
      "byteOffset": 6468
    },
    {
      "buffer": 0,
      "byteLength": 784,
      "byteOffset": 7252
    },
    {
      "buffer": 0,
      "byteLength": 784,
      "byteOffset": 8036
    },
    {
      "buffer": 0,
      "byteLength": 784,
      "byteOffset": 8820
    },
    {
      "buffer": 0,
      "byteLength": 588,
      "byteOffset": 9604
    },
    {
      "buffer": 0,
      "byteLength": 784,
      "byteOffset": 10192
    },
    {
      "buffer": 0,
      "byteLength": 784,
      "byteOffset": 10976
    },
    {
      "buffer": 0,
      "byteLength": 784,
      "byteOffset": 11760
    },
    {
      "buffer": 0,
      "byteLength": 784,
      "byteOffset": 12544
    },
    {
      "buffer": 0,
      "byteLength": 784,
      "byteOffset": 13328
    },
    {
      "buffer": 0,
      "byteLength": 588,
      "byteOffset": 14112
    },
    {
      "buffer": 0,
      "byteLength": 784,
      "byteOffset": 14700
    },
    {
      "buffer": 0,
      "byteLength": 784,
      "byteOffset": 15484
    },
    {
      "buffer": 0,
      "byteLength": 784,
      "byteOffset": 16268
    },
    {
      "buffer": 0,
      "byteLength": 784,
      "byteOffset": 17052
    },
    {
      "buffer": 0,
      "byteLength": 588,
      "byteOffset": 17836
    },
    {
      "buffer": 0,
      "byteLength": 784,
      "byteOffset": 18424
    },
    {
      "buffer": 0,
      "byteLength": 784,
      "byteOffset": 19208
    },
    {
      "buffer": 0,
      "byteLength": 784,
      "byteOffset": 19992
    },
    {
      "buffer": 0,
      "byteLength": 784,
      "byteOffset": 20776
    },
    {
      "buffer": 0,
      "byteLength": 588,
      "byteOffset": 21560
    },
    {
      "buffer": 0,
      "byteLength": 784,
      "byteOffset": 22148
    },
    {
      "buffer": 0,
      "byteLength": 588,
      "byteOffset": 22932
    },
    {
      "buffer": 0,
      "byteLength": 588,
      "byteOffset": 23520
    },
    {
      "buffer": 0,
      "byteLength": 784,
      "byteOffset": 24108
    },
    {
      "buffer": 0,
      "byteLength": 588,
      "byteOffset": 24892
    },
    {
      "buffer": 0,
      "byteLength": 784,
      "byteOffset": 25480
    },
    {
      "buffer": 0,
      "byteLength": 588,
      "byteOffset": 26264
    },
    {
      "buffer": 0,
      "byteLength": 784,
      "byteOffset": 26852
    },
    {
      "buffer": 0,
      "byteLength": 588,
      "byteOffset": 27636
    },
    {
      "buffer": 0,
      "byteLength": 784,
      "byteOffset": 28224
    },
    {
      "buffer": 0,
      "byteLength": 784,
      "byteOffset": 29008
    },
    {
      "buffer": 0,
      "byteLength": 588,
      "byteOffset": 29792
    },
    {
      "buffer": 0,
      "byteLength": 784,
      "byteOffset": 30380
    },
    {
      "buffer": 0,
      "byteLength": 588,
      "byteOffset": 31164
    },
    {
      "buffer": 0,
      "byteLength": 784,
      "byteOffset": 31752
    },
    {
      "buffer": 0,
      "byteLength": 588,
      "byteOffset": 32536
    },
    {
      "buffer": 0,
      "byteLength": 784,
      "byteOffset": 33124
    },
    {
      "buffer": 0,
      "byteLength": 588,
      "byteOffset": 33908
    },
    {
      "buffer": 0,
      "byteLength": 784,
      "byteOffset": 34496
    },
    {
      "buffer": 0,
      "byteLength": 588,
      "byteOffset": 35280
    },
    {
      "buffer": 0,
      "byteLength": 784,
      "byteOffset": 35868
    },
    {
      "buffer": 0,
      "byteLength": 588,
      "byteOffset": 36652
    },
    {
      "buffer": 0,
      "byteLength": 784,
      "byteOffset": 37240
    },
    {
      "buffer": 0,
      "byteLength": 588,
      "byteOffset": 38024
    },
    {
      "buffer": 0,
      "byteLength": 784,
      "byteOffset": 38612
    },
    {
      "buffer": 0,
      "byteLength": 784,
      "byteOffset": 39396
    },
    {
      "buffer": 0,
      "byteLength": 784,
      "byteOffset": 40180
    },
    {
      "buffer": 0,
      "byteLength": 784,
      "byteOffset": 40964
    },
    {
      "buffer": 0,
      "byteLength": 784,
      "byteOffset": 41748
    },
    {
      "buffer": 0,
      "byteLength": 588,
      "byteOffset": 42532
    },
    {
      "buffer": 0,
      "byteLength": 784,
      "byteOffset": 43120
    },
    {
      "buffer": 0,
      "byteLength": 588,
      "byteOffset": 43904
    },
    {
      "buffer": 0,
      "byteLength": 784,
      "byteOffset": 44492
    },
    {
      "buffer": 0,
      "byteLength": 784,
      "byteOffset": 45276
    }
  ],
  "scenes": [
    {
      "name": "Root Scene",
      "nodes": [
        0
      ]
    }
  ],
  "accessors": [
    {
      "componentType": 5126,
      "type": "SCALAR",
      "count": 49,
      "bufferView": 0,
      "byteOffset": 0,
      "min": [
        0
      ],
      "max": [
        2
      ]
    },
    {
      "componentType": 5126,
      "type": "VEC3",
      "count": 49,
      "bufferView": 1,
      "byteOffset": 0
    },
    {
      "componentType": 5126,
      "type": "VEC4",
      "count": 49,
      "bufferView": 2,
      "byteOffset": 0
    },
    {
      "componentType": 5126,
      "type": "VEC3",
      "count": 49,
      "bufferView": 3,
      "byteOffset": 0
    },
    {
      "componentType": 5126,
      "type": "VEC4",
      "count": 49,
      "bufferView": 4,
      "byteOffset": 0
    },
    {
      "componentType": 5126,
      "type": "VEC3",
      "count": 49,
      "bufferView": 5,
      "byteOffset": 0
    },
    {
      "componentType": 5126,
      "type": "VEC4",
      "count": 49,
      "bufferView": 6,
      "byteOffset": 0
    },
    {
      "componentType": 5126,
      "type": "VEC4",
      "count": 49,
      "bufferView": 7,
      "byteOffset": 0
    },
    {
      "componentType": 5126,
      "type": "VEC3",
      "count": 49,
      "bufferView": 8,
      "byteOffset": 0
    },
    {
      "componentType": 5126,
      "type": "VEC4",
      "count": 49,
      "bufferView": 9,
      "byteOffset": 0
    },
    {
      "componentType": 5126,
      "type": "VEC4",
      "count": 49,
      "bufferView": 10,
      "byteOffset": 0
    },
    {
      "componentType": 5126,
      "type": "VEC4",
      "count": 49,
      "bufferView": 11,
      "byteOffset": 0
    },
    {
      "componentType": 5126,
      "type": "VEC4",
      "count": 49,
      "bufferView": 12,
      "byteOffset": 0
    },
    {
      "componentType": 5126,
      "type": "VEC4",
      "count": 49,
      "bufferView": 13,
      "byteOffset": 0
    },
    {
      "componentType": 5126,
      "type": "VEC3",
      "count": 49,
      "bufferView": 14,
      "byteOffset": 0
    },
    {
      "componentType": 5126,
      "type": "VEC4",
      "count": 49,
      "bufferView": 15,
      "byteOffset": 0
    },
    {
      "componentType": 5126,
      "type": "VEC4",
      "count": 49,
      "bufferView": 16,
      "byteOffset": 0
    },
    {
      "componentType": 5126,
      "type": "VEC4",
      "count": 49,
      "bufferView": 17,
      "byteOffset": 0
    },
    {
      "componentType": 5126,
      "type": "VEC4",
      "count": 49,
      "bufferView": 18,
      "byteOffset": 0
    },
    {
      "componentType": 5126,
      "type": "VEC4",
      "count": 49,
      "bufferView": 19,
      "byteOffset": 0
    },
    {
      "componentType": 5126,
      "type": "VEC3",
      "count": 49,
      "bufferView": 20,
      "byteOffset": 0
    },
    {
      "componentType": 5126,
      "type": "VEC4",
      "count": 49,
      "bufferView": 21,
      "byteOffset": 0
    },
    {
      "componentType": 5126,
      "type": "VEC4",
      "count": 49,
      "bufferView": 22,
      "byteOffset": 0
    },
    {
      "componentType": 5126,
      "type": "VEC4",
      "count": 49,
      "bufferView": 23,
      "byteOffset": 0
    },
    {
      "componentType": 5126,
      "type": "VEC4",
      "count": 49,
      "bufferView": 24,
      "byteOffset": 0
    },
    {
      "componentType": 5126,
      "type": "VEC3",
      "count": 49,
      "bufferView": 25,
      "byteOffset": 0
    },
    {
      "componentType": 5126,
      "type": "VEC4",
      "count": 49,
      "bufferView": 26,
      "byteOffset": 0
    },
    {
      "componentType": 5126,
      "type": "VEC4",
      "count": 49,
      "bufferView": 27,
      "byteOffset": 0
    },
    {
      "componentType": 5126,
      "type": "VEC4",
      "count": 49,
      "bufferView": 28,
      "byteOffset": 0
    },
    {
      "componentType": 5126,
      "type": "VEC4",
      "count": 49,
      "bufferView": 29,
      "byteOffset": 0
    },
    {
      "componentType": 5126,
      "type": "VEC3",
      "count": 49,
      "bufferView": 30,
      "byteOffset": 0
    },
    {
      "componentType": 5126,
      "type": "VEC4",
      "count": 49,
      "bufferView": 31,
      "byteOffset": 0
    },
    {
      "componentType": 5126,
      "type": "VEC3",
      "count": 49,
      "bufferView": 32,
      "byteOffset": 0
    },
    {
      "componentType": 5126,
      "type": "VEC3",
      "count": 49,
      "bufferView": 33,
      "byteOffset": 0
    },
    {
      "componentType": 5126,
      "type": "VEC4",
      "count": 49,
      "bufferView": 34,
      "byteOffset": 0
    },
    {
      "componentType": 5126,
      "type": "VEC3",
      "count": 49,
      "bufferView": 35,
      "byteOffset": 0
    },
    {
      "componentType": 5126,
      "type": "VEC4",
      "count": 49,
      "bufferView": 36,
      "byteOffset": 0
    },
    {
      "componentType": 5126,
      "type": "VEC3",
      "count": 49,
      "bufferView": 37,
      "byteOffset": 0
    },
    {
      "componentType": 5126,
      "type": "VEC4",
      "count": 49,
      "bufferView": 38,
      "byteOffset": 0
    },
    {
      "componentType": 5126,
      "type": "VEC3",
      "count": 49,
      "bufferView": 39,
      "byteOffset": 0
    },
    {
      "componentType": 5126,
      "type": "VEC4",
      "count": 49,
      "bufferView": 40,
      "byteOffset": 0
    },
    {
      "componentType": 5126,
      "type": "VEC4",
      "count": 49,
      "bufferView": 41,
      "byteOffset": 0
    },
    {
      "componentType": 5126,
      "type": "VEC3",
      "count": 49,
      "bufferView": 42,
      "byteOffset": 0
    },
    {
      "componentType": 5126,
      "type": "VEC4",
      "count": 49,
      "bufferView": 43,
      "byteOffset": 0
    },
    {
      "componentType": 5126,
      "type": "VEC3",
      "count": 49,
      "bufferView": 44,
      "byteOffset": 0
    },
    {
      "componentType": 5126,
      "type": "VEC4",
      "count": 49,
      "bufferView": 45,
      "byteOffset": 0
    },
    {
      "componentType": 5126,
      "type": "VEC3",
      "count": 49,
      "bufferView": 46,
      "byteOffset": 0
    },
    {
      "componentType": 5126,
      "type": "VEC4",
      "count": 49,
      "bufferView": 47,
      "byteOffset": 0
    },
    {
      "componentType": 5126,
      "type": "VEC3",
      "count": 49,
      "bufferView": 48,
      "byteOffset": 0
    },
    {
      "componentType": 5126,
      "type": "VEC4",
      "count": 49,
      "bufferView": 49,
      "byteOffset": 0
    },
    {
      "componentType": 5126,
      "type": "VEC3",
      "count": 49,
      "bufferView": 50,
      "byteOffset": 0
    },
    {
      "componentType": 5126,
      "type": "VEC4",
      "count": 49,
      "bufferView": 51,
      "byteOffset": 0
    },
    {
      "componentType": 5126,
      "type": "VEC3",
      "count": 49,
      "bufferView": 52,
      "byteOffset": 0
    },
    {
      "componentType": 5126,
      "type": "VEC4",
      "count": 49,
      "bufferView": 53,
      "byteOffset": 0
    },
    {
      "componentType": 5126,
      "type": "VEC3",
      "count": 49,
      "bufferView": 54,
      "byteOffset": 0
    },
    {
      "componentType": 5126,
      "type": "VEC4",
      "count": 49,
      "bufferView": 55,
      "byteOffset": 0
    },
    {
      "componentType": 5126,
      "type": "VEC4",
      "count": 49,
      "bufferView": 56,
      "byteOffset": 0
    },
    {
      "componentType": 5126,
      "type": "VEC4",
      "count": 49,
      "bufferView": 57,
      "byteOffset": 0
    },
    {
      "componentType": 5126,
      "type": "VEC4",
      "count": 49,
      "bufferView": 58,
      "byteOffset": 0
    },
    {
      "componentType": 5126,
      "type": "VEC4",
      "count": 49,
      "bufferView": 59,
      "byteOffset": 0
    },
    {
      "componentType": 5126,
      "type": "VEC3",
      "count": 49,
      "bufferView": 60,
      "byteOffset": 0
    },
    {
      "componentType": 5126,
      "type": "VEC4",
      "count": 49,
      "bufferView": 61,
      "byteOffset": 0
    },
    {
      "componentType": 5126,
      "type": "VEC3",
      "count": 49,
      "bufferView": 62,
      "byteOffset": 0
    },
    {
      "componentType": 5126,
      "type": "VEC4",
      "count": 49,
      "bufferView": 63,
      "byteOffset": 0
    },
    {
      "componentType": 5126,
      "type": "VEC4",
      "count": 49,
      "bufferView": 64,
      "byteOffset": 0
    }
  ],
  "samplers": [
    {}
  ],
  "animations": [
    {
      "name": "Take 001",
      "channels": [
        {
          "sampler": 0,
          "target": {
            "node": 1,
            "path": "translation"
          }
        },
        {
          "sampler": 1,
          "target": {
            "node": 1,
            "path": "rotation"
          }
        },
        {
          "sampler": 2,
          "target": {
            "node": 3,
            "path": "translation"
          }
        },
        {
          "sampler": 3,
          "target": {
            "node": 3,
            "path": "rotation"
          }
        },
        {
          "sampler": 4,
          "target": {
            "node": 4,
            "path": "translation"
          }
        },
        {
          "sampler": 5,
          "target": {
            "node": 4,
            "path": "rotation"
          }
        },
        {
          "sampler": 6,
          "target": {
            "node": 5,
            "path": "rotation"
          }
        },
        {
          "sampler": 7,
          "target": {
            "node": 6,
            "path": "translation"
          }
        },
        {
          "sampler": 8,
          "target": {
            "node": 6,
            "path": "rotation"
          }
        },
        {
          "sampler": 9,
          "target": {
            "node": 7,
            "path": "rotation"
          }
        },
        {
          "sampler": 10,
          "target": {
            "node": 8,
            "path": "rotation"
          }
        },
        {
          "sampler": 11,
          "target": {
            "node": 9,
            "path": "rotation"
          }
        },
        {
          "sampler": 12,
          "target": {
            "node": 10,
            "path": "rotation"
          }
        },
        {
          "sampler": 13,
          "target": {
            "node": 11,
            "path": "translation"
          }
        },
        {
          "sampler": 14,
          "target": {
            "node": 11,
            "path": "rotation"
          }
        },
        {
          "sampler": 15,
          "target": {
            "node": 12,
            "path": "rotation"
          }
        },
        {
          "sampler": 16,
          "target": {
            "node": 13,
            "path": "rotation"
          }
        },
        {
          "sampler": 17,
          "target": {
            "node": 14,
            "path": "rotation"
          }
        },
        {
          "sampler": 18,
          "target": {
            "node": 15,
            "path": "rotation"
          }
        },
        {
          "sampler": 19,
          "target": {
            "node": 16,
            "path": "translation"
          }
        },
        {
          "sampler": 20,
          "target": {
            "node": 16,
            "path": "rotation"
          }
        },
        {
          "sampler": 21,
          "target": {
            "node": 17,
            "path": "rotation"
          }
        },
        {
          "sampler": 22,
          "target": {
            "node": 18,
            "path": "rotation"
          }
        },
        {
          "sampler": 23,
          "target": {
            "node": 19,
            "path": "rotation"
          }
        },
        {
          "sampler": 24,
          "target": {
            "node": 20,
            "path": "translation"
          }
        },
        {
          "sampler": 25,
          "target": {
            "node": 20,
            "path": "rotation"
          }
        },
        {
          "sampler": 26,
          "target": {
            "node": 21,
            "path": "rotation"
          }
        },
        {
          "sampler": 27,
          "target": {
            "node": 22,
            "path": "rotation"
          }
        },
        {
          "sampler": 28,
          "target": {
            "node": 23,
            "path": "rotation"
          }
        },
        {
          "sampler": 29,
          "target": {
            "node": 24,
            "path": "translation"
          }
        },
        {
          "sampler": 30,
          "target": {
            "node": 24,
            "path": "rotation"
          }
        },
        {
          "sampler": 31,
          "target": {
            "node": 25,
            "path": "translation"
          }
        },
        {
          "sampler": 32,
          "target": {
            "node": 27,
            "path": "translation"
          }
        },
        {
          "sampler": 33,
          "target": {
            "node": 27,
            "path": "rotation"
          }
        },
        {
          "sampler": 34,
          "target": {
            "node": 29,
            "path": "translation"
          }
        },
        {
          "sampler": 35,
          "target": {
            "node": 29,
            "path": "rotation"
          }
        },
        {
          "sampler": 36,
          "target": {
            "node": 30,
            "path": "translation"
          }
        },
        {
          "sampler": 37,
          "target": {
            "node": 30,
            "path": "rotation"
          }
        },
        {
          "sampler": 38,
          "target": {
            "node": 31,
            "path": "translation"
          }
        },
        {
          "sampler": 39,
          "target": {
            "node": 31,
            "path": "rotation"
          }
        },
        {
          "sampler": 40,
          "target": {
            "node": 32,
            "path": "rotation"
          }
        },
        {
          "sampler": 41,
          "target": {
            "node": 33,
            "path": "translation"
          }
        },
        {
          "sampler": 42,
          "target": {
            "node": 33,
            "path": "rotation"
          }
        },
        {
          "sampler": 43,
          "target": {
            "node": 34,
            "path": "translation"
          }
        },
        {
          "sampler": 44,
          "target": {
            "node": 34,
            "path": "rotation"
          }
        },
        {
          "sampler": 45,
          "target": {
            "node": 35,
            "path": "translation"
          }
        },
        {
          "sampler": 46,
          "target": {
            "node": 35,
            "path": "rotation"
          }
        },
        {
          "sampler": 47,
          "target": {
            "node": 36,
            "path": "translation"
          }
        },
        {
          "sampler": 48,
          "target": {
            "node": 36,
            "path": "rotation"
          }
        },
        {
          "sampler": 49,
          "target": {
            "node": 37,
            "path": "translation"
          }
        },
        {
          "sampler": 50,
          "target": {
            "node": 37,
            "path": "rotation"
          }
        },
        {
          "sampler": 51,
          "target": {
            "node": 38,
            "path": "translation"
          }
        },
        {
          "sampler": 52,
          "target": {
            "node": 38,
            "path": "rotation"
          }
        },
        {
          "sampler": 53,
          "target": {
            "node": 39,
            "path": "translation"
          }
        },
        {
          "sampler": 54,
          "target": {
            "node": 39,
            "path": "rotation"
          }
        },
        {
          "sampler": 55,
          "target": {
            "node": 40,
            "path": "rotation"
          }
        },
        {
          "sampler": 56,
          "target": {
            "node": 41,
            "path": "rotation"
          }
        },
        {
          "sampler": 57,
          "target": {
            "node": 42,
            "path": "rotation"
          }
        },
        {
          "sampler": 58,
          "target": {
            "node": 44,
            "path": "rotation"
          }
        },
        {
          "sampler": 59,
          "target": {
            "node": 45,
            "path": "translation"
          }
        },
        {
          "sampler": 60,
          "target": {
            "node": 45,
            "path": "rotation"
          }
        },
        {
          "sampler": 61,
          "target": {
            "node": 46,
            "path": "translation"
          }
        },
        {
          "sampler": 62,
          "target": {
            "node": 46,
            "path": "rotation"
          }
        },
        {
          "sampler": 63,
          "target": {
            "node": 47,
            "path": "rotation"
          }
        }
      ],
      "samplers": [
        {
          "input": 0,
          "interpolation": "LINEAR",
          "output": 1
        },
        {
          "input": 0,
          "interpolation": "LINEAR",
          "output": 2
        },
        {
          "input": 0,
          "interpolation": "LINEAR",
          "output": 3
        },
        {
          "input": 0,
          "interpolation": "LINEAR",
          "output": 4
        },
        {
          "input": 0,
          "interpolation": "LINEAR",
          "output": 5
        },
        {
          "input": 0,
          "interpolation": "LINEAR",
          "output": 6
        },
        {
          "input": 0,
          "interpolation": "LINEAR",
          "output": 7
        },
        {
          "input": 0,
          "interpolation": "LINEAR",
          "output": 8
        },
        {
          "input": 0,
          "interpolation": "LINEAR",
          "output": 9
        },
        {
          "input": 0,
          "interpolation": "LINEAR",
          "output": 10
        },
        {
          "input": 0,
          "interpolation": "LINEAR",
          "output": 11
        },
        {
          "input": 0,
          "interpolation": "LINEAR",
          "output": 12
        },
        {
          "input": 0,
          "interpolation": "LINEAR",
          "output": 13
        },
        {
          "input": 0,
          "interpolation": "LINEAR",
          "output": 14
        },
        {
          "input": 0,
          "interpolation": "LINEAR",
          "output": 15
        },
        {
          "input": 0,
          "interpolation": "LINEAR",
          "output": 16
        },
        {
          "input": 0,
          "interpolation": "LINEAR",
          "output": 17
        },
        {
          "input": 0,
          "interpolation": "LINEAR",
          "output": 18
        },
        {
          "input": 0,
          "interpolation": "LINEAR",
          "output": 19
        },
        {
          "input": 0,
          "interpolation": "LINEAR",
          "output": 20
        },
        {
          "input": 0,
          "interpolation": "LINEAR",
          "output": 21
        },
        {
          "input": 0,
          "interpolation": "LINEAR",
          "output": 22
        },
        {
          "input": 0,
          "interpolation": "LINEAR",
          "output": 23
        },
        {
          "input": 0,
          "interpolation": "LINEAR",
          "output": 24
        },
        {
          "input": 0,
          "interpolation": "LINEAR",
          "output": 25
        },
        {
          "input": 0,
          "interpolation": "LINEAR",
          "output": 26
        },
        {
          "input": 0,
          "interpolation": "LINEAR",
          "output": 27
        },
        {
          "input": 0,
          "interpolation": "LINEAR",
          "output": 28
        },
        {
          "input": 0,
          "interpolation": "LINEAR",
          "output": 29
        },
        {
          "input": 0,
          "interpolation": "LINEAR",
          "output": 30
        },
        {
          "input": 0,
          "interpolation": "LINEAR",
          "output": 31
        },
        {
          "input": 0,
          "interpolation": "LINEAR",
          "output": 32
        },
        {
          "input": 0,
          "interpolation": "LINEAR",
          "output": 33
        },
        {
          "input": 0,
          "interpolation": "LINEAR",
          "output": 34
        },
        {
          "input": 0,
          "interpolation": "LINEAR",
          "output": 35
        },
        {
          "input": 0,
          "interpolation": "LINEAR",
          "output": 36
        },
        {
          "input": 0,
          "interpolation": "LINEAR",
          "output": 37
        },
        {
          "input": 0,
          "interpolation": "LINEAR",
          "output": 38
        },
        {
          "input": 0,
          "interpolation": "LINEAR",
          "output": 39
        },
        {
          "input": 0,
          "interpolation": "LINEAR",
          "output": 40
        },
        {
          "input": 0,
          "interpolation": "LINEAR",
          "output": 41
        },
        {
          "input": 0,
          "interpolation": "LINEAR",
          "output": 42
        },
        {
          "input": 0,
          "interpolation": "LINEAR",
          "output": 43
        },
        {
          "input": 0,
          "interpolation": "LINEAR",
          "output": 44
        },
        {
          "input": 0,
          "interpolation": "LINEAR",
          "output": 45
        },
        {
          "input": 0,
          "interpolation": "LINEAR",
          "output": 46
        },
        {
          "input": 0,
          "interpolation": "LINEAR",
          "output": 47
        },
        {
          "input": 0,
          "interpolation": "LINEAR",
          "output": 48
        },
        {
          "input": 0,
          "interpolation": "LINEAR",
          "output": 49
        },
        {
          "input": 0,
          "interpolation": "LINEAR",
          "output": 50
        },
        {
          "input": 0,
          "interpolation": "LINEAR",
          "output": 51
        },
        {
          "input": 0,
          "interpolation": "LINEAR",
          "output": 52
        },
        {
          "input": 0,
          "interpolation": "LINEAR",
          "output": 53
        },
        {
          "input": 0,
          "interpolation": "LINEAR",
          "output": 54
        },
        {
          "input": 0,
          "interpolation": "LINEAR",
          "output": 55
        },
        {
          "input": 0,
          "interpolation": "LINEAR",
          "output": 56
        },
        {
          "input": 0,
          "interpolation": "LINEAR",
          "output": 57
        },
        {
          "input": 0,
          "interpolation": "LINEAR",
          "output": 58
        },
        {
          "input": 0,
          "interpolation": "LINEAR",
          "output": 59
        },
        {
          "input": 0,
          "interpolation": "LINEAR",
          "output": 60
        },
        {
          "input": 0,
          "interpolation": "LINEAR",
          "output": 61
        },
        {
          "input": 0,
          "interpolation": "LINEAR",
          "output": 62
        },
        {
          "input": 0,
          "interpolation": "LINEAR",
          "output": 63
        },
        {
          "input": 0,
          "interpolation": "LINEAR",
          "output": 64
        }
      ]
    }
  ],
  "nodes": [
    {
      "name": "RootNode",
      "translation": [
        0,
        0,
        0
      ],
      "rotation": [
        0,
        0,
        0,
        1
      ],
      "scale": [
        1,
        1,
        1
      ],
      "children": [
        1
      ]
    },
    {
      "name": "Bip001",
      "translation": [
        0.00596010126173496,
        1.06403946876526,
        -0.427360266447067
      ],
      "rotation": [
        -0.489711105823517,
        -0.498260319232941,
        -0.510283529758453,
        0.501528084278107
      ],
      "scale": [
        2.54000020027161,
        2.54000020027161,
        2.53999996185303
      ],
      "children": [
        2
      ]
    },
    {
      "name": "Bip001 Pelvis",
      "translation": [
        0,
        0,
        0
      ],
      "rotation": [
        -0.70702189207077,
        -0.0109227569773793,
        -0.010923720896244,
        0.707022905349731
      ],
      "scale": [
        0.99999988079071,
        0.999999940395355,
        1
      ],
      "children": [
        3
      ]
    },
    {
      "name": "Bip001 Spine",
      "translation": [
        0.108206272125244,
        0.00509178172796965,
        7.5846905644994e-8
      ],
      "rotation": [
        -0.0000205975338758435,
        -7.28106101632875e-7,
        0.0234478171914816,
        0.999725043773651
      ],
      "scale": [
        1.00000023841858,
        1.00000011920929,
        1
      ],
      "children": [
        4,
        16,
        20,
        24,
        26
      ]
    },
    {
      "name": "Bip001 Neck",
      "translation": [
        0.262907356023788,
        -0.0539684295654297,
        1.30534175468711e-7
      ],
      "rotation": [
        -0.00294132041744888,
        -0.00474624102935195,
        -0.326974928379059,
        0.945016503334045
      ],
      "scale": [
        0.999999821186066,
        0.999999940395355,
        0.999999940395355
      ],
      "children": [
        5,
        6,
        11
      ]
    },
    {
      "name": "Bip001 Head",
      "translation": [
        0.198947444558144,
        0.0253419112414122,
        4.17232515204091e-9
      ],
      "rotation": [
        0.00313726533204317,
        0.00447859289124608,
        0.584899127483368,
        0.811087608337402
      ],
      "scale": [
        0.999999940395355,
        1,
        0.999999940395355
      ]
    },
    {
      "name": "Bip001 L Clavicle",
      "translation": [
        -0.045394591987133,
        0.0325736403465271,
        0.0355590581893921
      ],
      "rotation": [
        0.875612258911133,
        0.361567884683609,
        0.281021267175674,
        0.153619185090065
      ],
      "scale": [
        1,
        0.999999940395355,
        1
      ],
      "children": [
        7
      ]
    },
    {
      "name": "Bip001 L UpperArm",
      "translation": [
        0.039949081838131,
        0,
        3.55271359939116e-17
      ],
      "rotation": [
        -0.481977760791779,
        0.808338344097137,
        0.116463124752045,
        0.317368745803833
      ],
      "scale": [
        0.999999940395355,
        1,
        0.999999940395355
      ],
      "children": [
        8
      ]
    },
    {
      "name": "Bip001 L Forearm",
      "translation": [
        0.116366498172283,
        -9.53674295089968e-9,
        0
      ],
      "rotation": [
        -2.9094152783677e-18,
        2.29457523777949e-18,
        -0.304129749536514,
        0.952630639076233
      ],
      "scale": [
        0.99999988079071,
        1.00000011920929,
        1
      ],
      "children": [
        9
      ]
    },
    {
      "name": "Bip001 L Hand",
      "translation": [
        0.118980519473553,
        9.53674295089968e-9,
        -4.76837147544984e-9
      ],
      "rotation": [
        -0.0285447798669338,
        -0.0125472713261843,
        0.0052253887988627,
        0.999500095844269
      ],
      "scale": [
        1,
        1.00000011920929,
        1
      ],
      "children": [
        10
      ]
    },
    {
      "name": "Bip001 L Finger0",
      "translation": [
        0.13608492910862,
        -9.53674295089968e-9,
        4.76837147544984e-9
      ],
      "rotation": [
        0.00771544920280576,
        0.00631972122937441,
        -0.170091956853867,
        0.985377728939056
      ],
      "scale": [
        1,
        1,
        1
      ]
    },
    {
      "name": "Bip001 R Clavicle",
      "translation": [
        -0.0461569204926491,
        0.0327455885708332,
        -0.0344014950096607
      ],
      "rotation": [
        0.872118175029755,
        0.360562175512314,
        -0.28965562582016,
        -0.159701034426689
      ],
      "scale": [
        1,
        0.999999940395355,
        1
      ],
      "children": [
        12
      ]
    },
    {
      "name": "Bip001 R UpperArm",
      "translation": [
        0.039949081838131,
        -7.10542719878232e-17,
        -7.10542719878232e-17
      ],
      "rotation": [
        -0.511657059192657,
        0.793346703052521,
        -0.0947703570127487,
        -0.315953642129898
      ],
      "scale": [
        0.99999988079071,
        1,
        0.999999940395355
      ],
      "children": [
        13
      ]
    },
    {
      "name": "Bip001 R Forearm",
      "translation": [
        0.11636646091938,
        9.53674295089968e-9,
        0
      ],
      "rotation": [
        2.14379791894606e-19,
        -7.05483836280271e-19,
        -0.327623516321182,
        0.94480836391449
      ],
      "scale": [
        1.00000011920929,
        0.99999988079071,
        1
      ],
      "children": [
        14
      ]
    },
    {
      "name": "Bip001 R Hand",
      "translation": [
        0.118980497121811,
        0,
        1.77635679969558e-17
      ],
      "rotation": [
        0.0081756804138422,
        0.00780982570722699,
        -0.0153713813051581,
        0.999817907810211
      ],
      "scale": [
        1,
        1.00000011920929,
        1.00000011920929
      ],
      "children": [
        15
      ]
    },
    {
      "name": "Bip001 R Finger0",
      "translation": [
        0.136084958910942,
        0,
        0
      ],
      "rotation": [
        -0.00747009832412004,
        -0.00648100115358829,
        -0.0763936191797256,
        0.997028708457947
      ],
      "scale": [
        1,
        1,
        1
      ]
    },
    {
      "name": "Bip001 L Thigh",
      "translation": [
        -0.108326010406017,
        -0.0000156402584252646,
        0.0620294064283371
      ],
      "rotation": [
        0.74747097492218,
        0.662080645561218,
        0.0114164296537638,
        0.0529718995094299
      ],
      "scale": [
        0.999999821186066,
        1,
        1
      ],
      "children": [
        17
      ]
    },
    {
      "name": "Bip001 L Calf",
      "translation": [
        0.177478030323982,
        -1.90734859017994e-8,
        9.53674295089968e-9
      ],
      "rotation": [
        -1.0889276898889e-17,
        -9.27651624114944e-18,
        -0.581218063831329,
        0.813747882843018
      ],
      "scale": [
        0.99999988079071,
        1,
        1
      ],
      "children": [
        18
      ]
    },
    {
      "name": "Bip001 L Foot",
      "translation": [
        0.0734095945954323,
        -1.90734859017994e-8,
        1.77635679969558e-17
      ],
      "rotation": [
        -0.0340606905519962,
        -0.0257712211459875,
        0.0970320254564285,
        0.994364380836487
      ],
      "scale": [
        1.00000011920929,
        0.999999940395355,
        1
      ],
      "children": [
        19
      ]
    },
    {
      "name": "Bip001 L Toe0",
      "translation": [
        0.0420659445226192,
        0.136765241622925,
        -0.00187596795149148
      ],
      "rotation": [
        -0.0112434793263674,
        0.0313255749642849,
        0.562475502490997,
        0.826143801212311
      ],
      "scale": [
        1.00000011920929,
        1,
        1
      ]
    },
    {
      "name": "Bip001 R Thigh",
      "translation": [
        -0.108325935900211,
        -0.0000106811521618511,
        -0.062029454857111
      ],
      "rotation": [
        0.651638925075531,
        0.757002472877502,
        -0.014465507119894,
        -0.0458765253424644
      ],
      "scale": [
        0.999999761581421,
        0.999999821186066,
        1
      ],
      "children": [
        21
      ]
    },
    {
      "name": "Bip001 R Calf",
      "translation": [
        0.177477985620499,
        1.90734859017994e-8,
        4.76837147544984e-9
      ],
      "rotation": [
        1.24919442987941e-17,
        6.58124902778255e-19,
        -0.510156989097595,
        0.860081315040588
      ],
      "scale": [
        1,
        1,
        1
      ],
      "children": [
        22
      ]
    },
    {
      "name": "Bip001 R Foot",
      "translation": [
        0.0734095945954323,
        0,
        -4.76837147544984e-9
      ],
      "rotation": [
        0.00363379716873169,
        -0.0369564108550549,
        -0.0358738414943218,
        0.998666167259216
      ],
      "scale": [
        1.00000011920929,
        1.00000011920929,
        1
      ],
      "children": [
        23
      ]
    },
    {
      "name": "Bip001 R Toe0",
      "translation": [
        0.0420659631490707,
        0.136765286326408,
        0.00187597272451967
      ],
      "rotation": [
        0.0493319556117058,
        0.0428317934274673,
        0.682196140289307,
        0.728244602680206
      ],
      "scale": [
        0.999999940395355,
        1,
        1
      ]
    },
    {
      "name": "Bip001 Tail",
      "translation": [
        -0.229644253849983,
        0.00165782927069813,
        -0.00000449046501671546
      ],
      "rotation": [
        0.0820620432496071,
        -0.0242418367415667,
        0.822746396064758,
        0.561931073665619
      ],
      "scale": [
        0.99999988079071,
        0.999999940395355,
        1
      ],
      "children": [
        25
      ]
    },
    {
      "name": "Bip001 Tail1",
      "translation": [
        0.107470661401749,
        -0.000115852351882495,
        0.0000078845023381291
      ],
      "rotation": [
        -0.0170206464827061,
        0.115523763000965,
        -0.137834683060646,
        0.983547747135162
      ],
      "scale": [
        1,
        0.999999940395355,
        0.999999940395355
      ]
    },
    {
      "name": "Bone_Mount",
      "translation": [
        0.06590685993433,
        -0.11390495300293,
        -4.88534567466559e-7
      ],
      "rotation": [
        0.703579425811768,
        -0.0705474242568016,
        -0.070546954870224,
        0.703578174114227
      ],
      "scale": [
        1.00000011920929,
        1,
        0.999999940395355
      ],
      "children": [
        27
      ]
    },
    {
      "name": "Bip002",
      "translation": [
        -2.8610228852699e-8,
        -1.04308128801023e-9,
        -3.81469718035987e-8
      ],
      "rotation": [
        3.64554608722756e-7,
        -1.49013317241042e-8,
        -4.63613162082765e-7,
        1
      ],
      "scale": [
        0.99999988079071,
        0.99999988079071,
        1.00000011920929
      ],
      "children": [
        28
      ]
    },
    {
      "name": "Bip001 Pelvis001",
      "translation": [
        0,
        0,
        0
      ],
      "rotation": [
        -0.5,
        -0.5,
        -0.499999314546585,
        0.500000715255737
      ],
      "scale": [
        1,
        1,
        1
      ],
      "children": [
        29,
        40,
        44
      ]
    },
    {
      "name": "Bip001 Spine001",
      "translation": [
        0.0444035716354847,
        -0.00009798049723031,
        0.0000371295936929528
      ],
      "rotation": [
        -0.166680455207825,
        -0.011985894292593,
        0.201425179839134,
        0.965143442153931
      ],
      "scale": [
        1,
        1.00000011920929,
        1.00000011920929
      ],
      "children": [
        30,
        32,
        36
      ]
    },
    {
      "name": "Bip001 Neck001",
      "translation": [
        0.154000476002693,
        -0.00244567869231105,
        -0.00000166654581335024
      ],
      "rotation": [
        0.0247604437172413,
        0.0519061274826527,
        0.25920695066452,
        0.964108109474182
      ],
      "scale": [
        1.00000011920929,
        1,
        1
      ],
      "children": [
        31
      ]
    },
    {
      "name": "Bip001 Head001",
      "translation": [
        0.0278383251279593,
        0.00587482424452901,
        9.53674295089968e-9
      ],
      "rotation": [
        0.169254690408707,
        -0.125977709889412,
        -0.249332547187805,
        0.945153832435608
      ],
      "scale": [
        1,
        0.999999940395355,
        1.00000011920929
      ]
    },
    {
      "name": "Bip001 L Clavicle001",
      "translation": [
        0.129266813397408,
        0.0000105094904938596,
        0.0255353059619665
      ],
      "rotation": [
        0.513574004173279,
        -0.128698363900185,
        0.844764351844788,
        -0.0777920857071877
      ],
      "scale": [
        1,
        1,
        1
      ],
      "children": [
        33
      ]
    },
    {
      "name": "Bip001 L UpperArm001",
      "translation": [
        0.0642493590712547,
        -2.8610228852699e-8,
        -7.62939436071974e-8
      ],
      "rotation": [
        0.0827194154262543,
        0.133110091090202,
        0.10905510187149,
        0.981603860855103
      ],
      "scale": [
        1,
        0.999999940395355,
        1
      ],
      "children": [
        34
      ]
    },
    {
      "name": "Bip001 L Forearm001",
      "translation": [
        0.11723930388689,
        0,
        3.81469718035987e-8
      ],
      "rotation": [
        -1.51790851864257e-17,
        -2.89981696405285e-17,
        -0.862824201583862,
        0.505504131317139
      ],
      "scale": [
        0.999999940395355,
        1.00000011920929,
        1
      ],
      "children": [
        35
      ]
    },
    {
      "name": "Bip001 L Hand001",
      "translation": [
        0.0897891521453857,
        7.10542719878232e-17,
        0
      ],
      "rotation": [
        -0.753834903240204,
        -0.213309302926064,
        -0.031801663339138,
        0.620661497116089
      ],
      "scale": [
        1,
        1.00000011920929,
        1
      ]
    },
    {
      "name": "Bip001 R Clavicle001",
      "translation": [
        0.129266738891602,
        0.0000106716152004083,
        -0.0255353022366762
      ],
      "rotation": [
        -0.554107367992401,
        0.0307574886828661,
        0.83163595199585,
        -0.0200159251689911
      ],
      "scale": [
        0.99999988079071,
        0.99999988079071,
        1
      ],
      "children": [
        37
      ]
    },
    {
      "name": "Bip001 R UpperArm001",
      "translation": [
        0.0642493069171906,
        9.53674295089968e-9,
        -7.62939436071974e-8
      ],
      "rotation": [
        -0.136924713850021,
        -0.234240278601646,
        0.0155159905552864,
        0.962362885475159
      ],
      "scale": [
        1,
        0.999999940395355,
        0.999999940395355
      ],
      "children": [
        38
      ]
    },
    {
      "name": "Bip001 R Forearm001",
      "translation": [
        0.117239259183407,
        1.90734859017994e-8,
        0
      ],
      "rotation": [
        -3.9225275224179e-17,
        5.88964772236372e-17,
        -0.707431316375732,
        0.706782102584839
      ],
      "scale": [
        1,
        1.00000011920929,
        1
      ],
      "children": [
        39
      ]
    },
    {
      "name": "Bip001 R Hand001",
      "translation": [
        0.0897891595959663,
        1.90734859017994e-8,
        3.81469718035987e-8
      ],
      "rotation": [
        0.673101723194122,
        0.276664674282074,
        0.400800436735153,
        0.55655163526535
      ],
      "scale": [
        0.999999940395355,
        0.99999988079071,
        0.99999988079071
      ]
    },
    {
      "name": "Bip001 L Thigh001",
      "translation": [
        -3.81469718035987e-8,
        7.62939436071974e-8,
        0.0439732111990452
      ],
      "rotation": [
        0.193428307771683,
        0.930463850498199,
        0.131288349628448,
        -0.28210973739624
      ],
      "scale": [
        1,
        1.00000011920929,
        1
      ],
      "children": [
        41
      ]
    },
    {
      "name": "Bip001 L Calf001",
      "translation": [
        0.152222856879234,
        0,
        0
      ],
      "rotation": [
        -2.91340489453914e-17,
        5.48002424343277e-17,
        -0.579821765422821,
        0.814743340015411
      ],
      "scale": [
        0.999999940395355,
        1.00000011920929,
        1
      ],
      "children": [
        42
      ]
    },
    {
      "name": "Bip001 L Foot001",
      "translation": [
        0.0957662537693977,
        -1.90734859017994e-8,
        -1.90734859017994e-8
      ],
      "rotation": [
        0.0690735429525375,
        -0.00608685286715627,
        0.125977843999863,
        0.98960667848587
      ],
      "scale": [
        1.00000011920929,
        1.00000011920929,
        1.00000011920929
      ],
      "children": [
        43
      ]
    },
    {
      "name": "Bip001 L Toe001",
      "translation": [
        0.0411565192043781,
        0.091840535402298,
        -3.55271359939116e-17
      ],
      "rotation": [
        2.89759558569358e-8,
        1.31708874917535e-8,
        0.70710676908493,
        0.70710676908493
      ],
      "scale": [
        1,
        1.00000011920929,
        1.00000011920929
      ]
    },
    {
      "name": "Bip001 R Thigh001",
      "translation": [
        3.81469718035987e-8,
        -3.81469718035987e-8,
        -0.0439732149243355
      ],
      "rotation": [
        0.193428114056587,
        0.930463254451752,
        -0.131289348006248,
        0.282111376523972
      ],
      "scale": [
        1.00000011920929,
        1.00000011920929,
        1.00000011920929
      ],
      "children": [
        45
      ]
    },
    {
      "name": "Bip001 R Calf001",
      "translation": [
        0.152222737669945,
        1.90734859017994e-8,
        -3.55271359939116e-17
      ],
      "rotation": [
        1.60932868537806e-17,
        2.26136687267666e-17,
        -0.579821825027466,
        0.814743340015411
      ],
      "scale": [
        1,
        1,
        1
      ],
      "children": [
        46
      ]
    },
    {
      "name": "Bip001 R Foot001",
      "translation": [
        0.0957662016153336,
        -9.53674295089968e-9,
        1.90734859017994e-8
      ],
      "rotation": [
        -0.0690735727548599,
        0.00608691154047847,
        0.125977829098701,
        0.98960667848587
      ],
      "scale": [
        1,
        1.00000011920929,
        0.99999988079071
      ],
      "children": [
        47
      ]
    },
    {
      "name": "Bip001 R Toe001",
      "translation": [
        0.0411565005779266,
        0.0918405130505562,
        0
      ],
      "rotation": [
        -1.05367128355738e-8,
        1.05367128355738e-8,
        0.70710676908493,
        0.70710676908493
      ],
      "scale": [
        0.999999940395355,
        0.999999940395355,
        0.999999940395355
      ]
    }
  ]
}