{
  "asset": {
    "generator": "FBX2glTF v0.9.7",
    "version": "2.0"
  },
  "scene": 0,
  "extensionsUsed": [
    "KHR_materials_unlit"
  ],
  "buffers": [
    {
      "byteLength": 16800,
      "uri": "cavalry_cavalry_03_run.bin"
    }
  ],
  "bufferViews": [
    {
      "buffer": 0,
      "byteLength": 80,
      "byteOffset": 0
    },
    {
      "buffer": 0,
      "byteLength": 240,
      "byteOffset": 80
    },
    {
      "buffer": 0,
      "byteLength": 320,
      "byteOffset": 320
    },
    {
      "buffer": 0,
      "byteLength": 240,
      "byteOffset": 640
    },
    {
      "buffer": 0,
      "byteLength": 320,
      "byteOffset": 880
    },
    {
      "buffer": 0,
      "byteLength": 240,
      "byteOffset": 1200
    },
    {
      "buffer": 0,
      "byteLength": 320,
      "byteOffset": 1440
    },
    {
      "buffer": 0,
      "byteLength": 320,
      "byteOffset": 1760
    },
    {
      "buffer": 0,
      "byteLength": 240,
      "byteOffset": 2080
    },
    {
      "buffer": 0,
      "byteLength": 320,
      "byteOffset": 2320
    },
    {
      "buffer": 0,
      "byteLength": 320,
      "byteOffset": 2640
    },
    {
      "buffer": 0,
      "byteLength": 320,
      "byteOffset": 2960
    },
    {
      "buffer": 0,
      "byteLength": 320,
      "byteOffset": 3280
    },
    {
      "buffer": 0,
      "byteLength": 320,
      "byteOffset": 3600
    },
    {
      "buffer": 0,
      "byteLength": 240,
      "byteOffset": 3920
    },
    {
      "buffer": 0,
      "byteLength": 320,
      "byteOffset": 4160
    },
    {
      "buffer": 0,
      "byteLength": 320,
      "byteOffset": 4480
    },
    {
      "buffer": 0,
      "byteLength": 320,
      "byteOffset": 4800
    },
    {
      "buffer": 0,
      "byteLength": 320,
      "byteOffset": 5120
    },
    {
      "buffer": 0,
      "byteLength": 320,
      "byteOffset": 5440
    },
    {
      "buffer": 0,
      "byteLength": 240,
      "byteOffset": 5760
    },
    {
      "buffer": 0,
      "byteLength": 320,
      "byteOffset": 6000
    },
    {
      "buffer": 0,
      "byteLength": 320,
      "byteOffset": 6320
    },
    {
      "buffer": 0,
      "byteLength": 320,
      "byteOffset": 6640
    },
    {
      "buffer": 0,
      "byteLength": 320,
      "byteOffset": 6960
    },
    {
      "buffer": 0,
      "byteLength": 240,
      "byteOffset": 7280
    },
    {
      "buffer": 0,
      "byteLength": 320,
      "byteOffset": 7520
    },
    {
      "buffer": 0,
      "byteLength": 320,
      "byteOffset": 7840
    },
    {
      "buffer": 0,
      "byteLength": 320,
      "byteOffset": 8160
    },
    {
      "buffer": 0,
      "byteLength": 240,
      "byteOffset": 8480
    },
    {
      "buffer": 0,
      "byteLength": 320,
      "byteOffset": 8720
    },
    {
      "buffer": 0,
      "byteLength": 240,
      "byteOffset": 9040
    },
    {
      "buffer": 0,
      "byteLength": 320,
      "byteOffset": 9280
    },
    {
      "buffer": 0,
      "byteLength": 240,
      "byteOffset": 9600
    },
    {
      "buffer": 0,
      "byteLength": 320,
      "byteOffset": 9840
    },
    {
      "buffer": 0,
      "byteLength": 320,
      "byteOffset": 10160
    },
    {
      "buffer": 0,
      "byteLength": 240,
      "byteOffset": 10480
    },
    {
      "buffer": 0,
      "byteLength": 320,
      "byteOffset": 10720
    },
    {
      "buffer": 0,
      "byteLength": 240,
      "byteOffset": 11040
    },
    {
      "buffer": 0,
      "byteLength": 320,
      "byteOffset": 11280
    },
    {
      "buffer": 0,
      "byteLength": 320,
      "byteOffset": 11600
    },
    {
      "buffer": 0,
      "byteLength": 240,
      "byteOffset": 11920
    },
    {
      "buffer": 0,
      "byteLength": 320,
      "byteOffset": 12160
    },
    {
      "buffer": 0,
      "byteLength": 320,
      "byteOffset": 12480
    },
    {
      "buffer": 0,
      "byteLength": 320,
      "byteOffset": 12800
    },
    {
      "buffer": 0,
      "byteLength": 320,
      "byteOffset": 13120
    },
    {
      "buffer": 0,
      "byteLength": 240,
      "byteOffset": 13440
    },
    {
      "buffer": 0,
      "byteLength": 320,
      "byteOffset": 13680
    },
    {
      "buffer": 0,
      "byteLength": 320,
      "byteOffset": 14000
    },
    {
      "buffer": 0,
      "byteLength": 320,
      "byteOffset": 14320
    },
    {
      "buffer": 0,
      "byteLength": 320,
      "byteOffset": 14640
    },
    {
      "buffer": 0,
      "byteLength": 320,
      "byteOffset": 14960
    },
    {
      "buffer": 0,
      "byteLength": 320,
      "byteOffset": 15280
    },
    {
      "buffer": 0,
      "byteLength": 240,
      "byteOffset": 15600
    },
    {
      "buffer": 0,
      "byteLength": 320,
      "byteOffset": 15840
    },
    {
      "buffer": 0,
      "byteLength": 320,
      "byteOffset": 16160
    },
    {
      "buffer": 0,
      "byteLength": 320,
      "byteOffset": 16480
    }
  ],
  "scenes": [
    {
      "name": "Root Scene",
      "nodes": [
        0
      ]
    }
  ],
  "accessors": [
    {
      "componentType": 5126,
      "type": "SCALAR",
      "count": 20,
      "bufferView": 0,
      "byteOffset": 0,
      "min": [
        0
      ],
      "max": [
        0.791666686534882
      ]
    },
    {
      "componentType": 5126,
      "type": "VEC3",
      "count": 20,
      "bufferView": 1,
      "byteOffset": 0
    },
    {
      "componentType": 5126,
      "type": "VEC4",
      "count": 20,
      "bufferView": 2,
      "byteOffset": 0
    },
    {
      "componentType": 5126,
      "type": "VEC3",
      "count": 20,
      "bufferView": 3,
      "byteOffset": 0
    },
    {
      "componentType": 5126,
      "type": "VEC4",
      "count": 20,
      "bufferView": 4,
      "byteOffset": 0
    },
    {
      "componentType": 5126,
      "type": "VEC3",
      "count": 20,
      "bufferView": 5,
      "byteOffset": 0
    },
    {
      "componentType": 5126,
      "type": "VEC4",
      "count": 20,
      "bufferView": 6,
      "byteOffset": 0
    },
    {
      "componentType": 5126,
      "type": "VEC4",
      "count": 20,
      "bufferView": 7,
      "byteOffset": 0
    },
    {
      "componentType": 5126,
      "type": "VEC3",
      "count": 20,
      "bufferView": 8,
      "byteOffset": 0
    },
    {
      "componentType": 5126,
      "type": "VEC4",
      "count": 20,
      "bufferView": 9,
      "byteOffset": 0
    },
    {
      "componentType": 5126,
      "type": "VEC4",
      "count": 20,
      "bufferView": 10,
      "byteOffset": 0
    },
    {
      "componentType": 5126,
      "type": "VEC4",
      "count": 20,
      "bufferView": 11,
      "byteOffset": 0
    },
    {
      "componentType": 5126,
      "type": "VEC4",
      "count": 20,
      "bufferView": 12,
      "byteOffset": 0
    },
    {
      "componentType": 5126,
      "type": "VEC4",
      "count": 20,
      "bufferView": 13,
      "byteOffset": 0
    },
    {
      "componentType": 5126,
      "type": "VEC3",
      "count": 20,
      "bufferView": 14,
      "byteOffset": 0
    },
    {
      "componentType": 5126,
      "type": "VEC4",
      "count": 20,
      "bufferView": 15,
      "byteOffset": 0
    },
    {
      "componentType": 5126,
      "type": "VEC4",
      "count": 20,
      "bufferView": 16,
      "byteOffset": 0
    },
    {
      "componentType": 5126,
      "type": "VEC4",
      "count": 20,
      "bufferView": 17,
      "byteOffset": 0
    },
    {
      "componentType": 5126,
      "type": "VEC4",
      "count": 20,
      "bufferView": 18,
      "byteOffset": 0
    },
    {
      "componentType": 5126,
      "type": "VEC4",
      "count": 20,
      "bufferView": 19,
      "byteOffset": 0
    },
    {
      "componentType": 5126,
      "type": "VEC3",
      "count": 20,
      "bufferView": 20,
      "byteOffset": 0
    },
    {
      "componentType": 5126,
      "type": "VEC4",
      "count": 20,
      "bufferView": 21,
      "byteOffset": 0
    },
    {
      "componentType": 5126,
      "type": "VEC4",
      "count": 20,
      "bufferView": 22,
      "byteOffset": 0
    },
    {
      "componentType": 5126,
      "type": "VEC4",
      "count": 20,
      "bufferView": 23,
      "byteOffset": 0
    },
    {
      "componentType": 5126,
      "type": "VEC4",
      "count": 20,
      "bufferView": 24,
      "byteOffset": 0
    },
    {
      "componentType": 5126,
      "type": "VEC3",
      "count": 20,
      "bufferView": 25,
      "byteOffset": 0
    },
    {
      "componentType": 5126,
      "type": "VEC4",
      "count": 20,
      "bufferView": 26,
      "byteOffset": 0
    },
    {
      "componentType": 5126,
      "type": "VEC4",
      "count": 20,
      "bufferView": 27,
      "byteOffset": 0
    },
    {
      "componentType": 5126,
      "type": "VEC4",
      "count": 20,
      "bufferView": 28,
      "byteOffset": 0
    },
    {
      "componentType": 5126,
      "type": "VEC3",
      "count": 20,
      "bufferView": 29,
      "byteOffset": 0
    },
    {
      "componentType": 5126,
      "type": "VEC4",
      "count": 20,
      "bufferView": 30,
      "byteOffset": 0
    },
    {
      "componentType": 5126,
      "type": "VEC3",
      "count": 20,
      "bufferView": 31,
      "byteOffset": 0
    },
    {
      "componentType": 5126,
      "type": "VEC4",
      "count": 20,
      "bufferView": 32,
      "byteOffset": 0
    },
    {
      "componentType": 5126,
      "type": "VEC3",
      "count": 20,
      "bufferView": 33,
      "byteOffset": 0
    },
    {
      "componentType": 5126,
      "type": "VEC4",
      "count": 20,
      "bufferView": 34,
      "byteOffset": 0
    },
    {
      "componentType": 5126,
      "type": "VEC4",
      "count": 20,
      "bufferView": 35,
      "byteOffset": 0
    },
    {
      "componentType": 5126,
      "type": "VEC3",
      "count": 20,
      "bufferView": 36,
      "byteOffset": 0
    },
    {
      "componentType": 5126,
      "type": "VEC4",
      "count": 20,
      "bufferView": 37,
      "byteOffset": 0
    },
    {
      "componentType": 5126,
      "type": "VEC3",
      "count": 20,
      "bufferView": 38,
      "byteOffset": 0
    },
    {
      "componentType": 5126,
      "type": "VEC4",
      "count": 20,
      "bufferView": 39,
      "byteOffset": 0
    },
    {
      "componentType": 5126,
      "type": "VEC4",
      "count": 20,
      "bufferView": 40,
      "byteOffset": 0
    },
    {
      "componentType": 5126,
      "type": "VEC3",
      "count": 20,
      "bufferView": 41,
      "byteOffset": 0
    },
    {
      "componentType": 5126,
      "type": "VEC4",
      "count": 20,
      "bufferView": 42,
      "byteOffset": 0
    },
    {
      "componentType": 5126,
      "type": "VEC4",
      "count": 20,
      "bufferView": 43,
      "byteOffset": 0
    },
    {
      "componentType": 5126,
      "type": "VEC4",
      "count": 20,
      "bufferView": 44,
      "byteOffset": 0
    },
    {
      "componentType": 5126,
      "type": "VEC4",
      "count": 20,
      "bufferView": 45,
      "byteOffset": 0
    },
    {
      "componentType": 5126,
      "type": "VEC3",
      "count": 20,
      "bufferView": 46,
      "byteOffset": 0
    },
    {
      "componentType": 5126,
      "type": "VEC4",
      "count": 20,
      "bufferView": 47,
      "byteOffset": 0
    },
    {
      "componentType": 5126,
      "type": "VEC4",
      "count": 20,
      "bufferView": 48,
      "byteOffset": 0
    },
    {
      "componentType": 5126,
      "type": "VEC4",
      "count": 20,
      "bufferView": 49,
      "byteOffset": 0
    },
    {
      "componentType": 5126,
      "type": "VEC4",
      "count": 20,
      "bufferView": 50,
      "byteOffset": 0
    },
    {
      "componentType": 5126,
      "type": "VEC4",
      "count": 20,
      "bufferView": 51,
      "byteOffset": 0
    },
    {
      "componentType": 5126,
      "type": "VEC4",
      "count": 20,
      "bufferView": 52,
      "byteOffset": 0
    },
    {
      "componentType": 5126,
      "type": "VEC3",
      "count": 20,
      "bufferView": 53,
      "byteOffset": 0
    },
    {
      "componentType": 5126,
      "type": "VEC4",
      "count": 20,
      "bufferView": 54,
      "byteOffset": 0
    },
    {
      "componentType": 5126,
      "type": "VEC4",
      "count": 20,
      "bufferView": 55,
      "byteOffset": 0
    },
    {
      "componentType": 5126,
      "type": "VEC4",
      "count": 20,
      "bufferView": 56,
      "byteOffset": 0
    }
  ],
  "samplers": [
    {}
  ],
  "animations": [
    {
      "name": "Take 001",
      "channels": [
        {
          "sampler": 0,
          "target": {
            "node": 1,
            "path": "translation"
          }
        },
        {
          "sampler": 1,
          "target": {
            "node": 1,
            "path": "rotation"
          }
        },
        {
          "sampler": 2,
          "target": {
            "node": 3,
            "path": "translation"
          }
        },
        {
          "sampler": 3,
          "target": {
            "node": 3,
            "path": "rotation"
          }
        },
        {
          "sampler": 4,
          "target": {
            "node": 4,
            "path": "translation"
          }
        },
        {
          "sampler": 5,
          "target": {
            "node": 4,
            "path": "rotation"
          }
        },
        {
          "sampler": 6,
          "target": {
            "node": 5,
            "path": "rotation"
          }
        },
        {
          "sampler": 7,
          "target": {
            "node": 6,
            "path": "translation"
          }
        },
        {
          "sampler": 8,
          "target": {
            "node": 6,
            "path": "rotation"
          }
        },
        {
          "sampler": 9,
          "target": {
            "node": 7,
            "path": "rotation"
          }
        },
        {
          "sampler": 10,
          "target": {
            "node": 8,
            "path": "rotation"
          }
        },
        {
          "sampler": 11,
          "target": {
            "node": 9,
            "path": "rotation"
          }
        },
        {
          "sampler": 12,
          "target": {
            "node": 10,
            "path": "rotation"
          }
        },
        {
          "sampler": 13,
          "target": {
            "node": 11,
            "path": "translation"
          }
        },
        {
          "sampler": 14,
          "target": {
            "node": 11,
            "path": "rotation"
          }
        },
        {
          "sampler": 15,
          "target": {
            "node": 12,
            "path": "rotation"
          }
        },
        {
          "sampler": 16,
          "target": {
            "node": 13,
            "path": "rotation"
          }
        },
        {
          "sampler": 17,
          "target": {
            "node": 14,
            "path": "rotation"
          }
        },
        {
          "sampler": 18,
          "target": {
            "node": 15,
            "path": "rotation"
          }
        },
        {
          "sampler": 19,
          "target": {
            "node": 16,
            "path": "translation"
          }
        },
        {
          "sampler": 20,
          "target": {
            "node": 16,
            "path": "rotation"
          }
        },
        {
          "sampler": 21,
          "target": {
            "node": 17,
            "path": "rotation"
          }
        },
        {
          "sampler": 22,
          "target": {
            "node": 18,
            "path": "rotation"
          }
        },
        {
          "sampler": 23,
          "target": {
            "node": 19,
            "path": "rotation"
          }
        },
        {
          "sampler": 24,
          "target": {
            "node": 20,
            "path": "translation"
          }
        },
        {
          "sampler": 25,
          "target": {
            "node": 20,
            "path": "rotation"
          }
        },
        {
          "sampler": 26,
          "target": {
            "node": 21,
            "path": "rotation"
          }
        },
        {
          "sampler": 27,
          "target": {
            "node": 22,
            "path": "rotation"
          }
        },
        {
          "sampler": 28,
          "target": {
            "node": 23,
            "path": "translation"
          }
        },
        {
          "sampler": 29,
          "target": {
            "node": 23,
            "path": "rotation"
          }
        },
        {
          "sampler": 30,
          "target": {
            "node": 24,
            "path": "translation"
          }
        },
        {
          "sampler": 31,
          "target": {
            "node": 24,
            "path": "rotation"
          }
        },
        {
          "sampler": 32,
          "target": {
            "node": 26,
            "path": "translation"
          }
        },
        {
          "sampler": 33,
          "target": {
            "node": 26,
            "path": "rotation"
          }
        },
        {
          "sampler": 34,
          "target": {
            "node": 27,
            "path": "rotation"
          }
        },
        {
          "sampler": 35,
          "target": {
            "node": 28,
            "path": "translation"
          }
        },
        {
          "sampler": 36,
          "target": {
            "node": 28,
            "path": "rotation"
          }
        },
        {
          "sampler": 37,
          "target": {
            "node": 29,
            "path": "translation"
          }
        },
        {
          "sampler": 38,
          "target": {
            "node": 29,
            "path": "rotation"
          }
        },
        {
          "sampler": 39,
          "target": {
            "node": 30,
            "path": "rotation"
          }
        },
        {
          "sampler": 40,
          "target": {
            "node": 31,
            "path": "translation"
          }
        },
        {
          "sampler": 41,
          "target": {
            "node": 31,
            "path": "rotation"
          }
        },
        {
          "sampler": 42,
          "target": {
            "node": 32,
            "path": "rotation"
          }
        },
        {
          "sampler": 43,
          "target": {
            "node": 33,
            "path": "rotation"
          }
        },
        {
          "sampler": 44,
          "target": {
            "node": 35,
            "path": "rotation"
          }
        },
        {
          "sampler": 45,
          "target": {
            "node": 36,
            "path": "translation"
          }
        },
        {
          "sampler": 46,
          "target": {
            "node": 36,
            "path": "rotation"
          }
        },
        {
          "sampler": 47,
          "target": {
            "node": 37,
            "path": "rotation"
          }
        },
        {
          "sampler": 48,
          "target": {
            "node": 38,
            "path": "rotation"
          }
        },
        {
          "sampler": 49,
          "target": {
            "node": 39,
            "path": "rotation"
          }
        },
        {
          "sampler": 50,
          "target": {
            "node": 40,
            "path": "rotation"
          }
        },
        {
          "sampler": 51,
          "target": {
            "node": 41,
            "path": "rotation"
          }
        },
        {
          "sampler": 52,
          "target": {
            "node": 43,
            "path": "translation"
          }
        },
        {
          "sampler": 53,
          "target": {
            "node": 43,
            "path": "rotation"
          }
        },
        {
          "sampler": 54,
          "target": {
            "node": 44,
            "path": "rotation"
          }
        },
        {
          "sampler": 55,
          "target": {
            "node": 45,
            "path": "rotation"
          }
        }
      ],
      "samplers": [
        {
          "input": 0,
          "interpolation": "LINEAR",
          "output": 1
        },
        {
          "input": 0,
          "interpolation": "LINEAR",
          "output": 2
        },
        {
          "input": 0,
          "interpolation": "LINEAR",
          "output": 3
        },
        {
          "input": 0,
          "interpolation": "LINEAR",
          "output": 4
        },
        {
          "input": 0,
          "interpolation": "LINEAR",
          "output": 5
        },
        {
          "input": 0,
          "interpolation": "LINEAR",
          "output": 6
        },
        {
          "input": 0,
          "interpolation": "LINEAR",
          "output": 7
        },
        {
          "input": 0,
          "interpolation": "LINEAR",
          "output": 8
        },
        {
          "input": 0,
          "interpolation": "LINEAR",
          "output": 9
        },
        {
          "input": 0,
          "interpolation": "LINEAR",
          "output": 10
        },
        {
          "input": 0,
          "interpolation": "LINEAR",
          "output": 11
        },
        {
          "input": 0,
          "interpolation": "LINEAR",
          "output": 12
        },
        {
          "input": 0,
          "interpolation": "LINEAR",
          "output": 13
        },
        {
          "input": 0,
          "interpolation": "LINEAR",
          "output": 14
        },
        {
          "input": 0,
          "interpolation": "LINEAR",
          "output": 15
        },
        {
          "input": 0,
          "interpolation": "LINEAR",
          "output": 16
        },
        {
          "input": 0,
          "interpolation": "LINEAR",
          "output": 17
        },
        {
          "input": 0,
          "interpolation": "LINEAR",
          "output": 18
        },
        {
          "input": 0,
          "interpolation": "LINEAR",
          "output": 19
        },
        {
          "input": 0,
          "interpolation": "LINEAR",
          "output": 20
        },
        {
          "input": 0,
          "interpolation": "LINEAR",
          "output": 21
        },
        {
          "input": 0,
          "interpolation": "LINEAR",
          "output": 22
        },
        {
          "input": 0,
          "interpolation": "LINEAR",
          "output": 23
        },
        {
          "input": 0,
          "interpolation": "LINEAR",
          "output": 24
        },
        {
          "input": 0,
          "interpolation": "LINEAR",
          "output": 25
        },
        {
          "input": 0,
          "interpolation": "LINEAR",
          "output": 26
        },
        {
          "input": 0,
          "interpolation": "LINEAR",
          "output": 27
        },
        {
          "input": 0,
          "interpolation": "LINEAR",
          "output": 28
        },
        {
          "input": 0,
          "interpolation": "LINEAR",
          "output": 29
        },
        {
          "input": 0,
          "interpolation": "LINEAR",
          "output": 30
        },
        {
          "input": 0,
          "interpolation": "LINEAR",
          "output": 31
        },
        {
          "input": 0,
          "interpolation": "LINEAR",
          "output": 32
        },
        {
          "input": 0,
          "interpolation": "LINEAR",
          "output": 33
        },
        {
          "input": 0,
          "interpolation": "LINEAR",
          "output": 34
        },
        {
          "input": 0,
          "interpolation": "LINEAR",
          "output": 35
        },
        {
          "input": 0,
          "interpolation": "LINEAR",
          "output": 36
        },
        {
          "input": 0,
          "interpolation": "LINEAR",
          "output": 37
        },
        {
          "input": 0,
          "interpolation": "LINEAR",
          "output": 38
        },
        {
          "input": 0,
          "interpolation": "LINEAR",
          "output": 39
        },
        {
          "input": 0,
          "interpolation": "LINEAR",
          "output": 40
        },
        {
          "input": 0,
          "interpolation": "LINEAR",
          "output": 41
        },
        {
          "input": 0,
          "interpolation": "LINEAR",
          "output": 42
        },
        {
          "input": 0,
          "interpolation": "LINEAR",
          "output": 43
        },
        {
          "input": 0,
          "interpolation": "LINEAR",
          "output": 44
        },
        {
          "input": 0,
          "interpolation": "LINEAR",
          "output": 45
        },
        {
          "input": 0,
          "interpolation": "LINEAR",
          "output": 46
        },
        {
          "input": 0,
          "interpolation": "LINEAR",
          "output": 47
        },
        {
          "input": 0,
          "interpolation": "LINEAR",
          "output": 48
        },
        {
          "input": 0,
          "interpolation": "LINEAR",
          "output": 49
        },
        {
          "input": 0,
          "interpolation": "LINEAR",
          "output": 50
        },
        {
          "input": 0,
          "interpolation": "LINEAR",
          "output": 51
        },
        {
          "input": 0,
          "interpolation": "LINEAR",
          "output": 52
        },
        {
          "input": 0,
          "interpolation": "LINEAR",
          "output": 53
        },
        {
          "input": 0,
          "interpolation": "LINEAR",
          "output": 54
        },
        {
          "input": 0,
          "interpolation": "LINEAR",
          "output": 55
        },
        {
          "input": 0,
          "interpolation": "LINEAR",
          "output": 56
        }
      ]
    }
  ],
  "nodes": [
    {
      "name": "RootNode",
      "translation": [
        0,
        0,
        0
      ],
      "rotation": [
        0,
        0,
        0,
        1
      ],
      "scale": [
        1,
        1,
        1
      ],
      "children": [
        1
      ]
    },
    {
      "name": "Bip001",
      "translation": [
        2.96461532801183e-23,
        0.868429243564606,
        -0.355940043926239
      ],
      "rotation": [
        -0.459626734256744,
        -0.459626048803329,
        -0.53734827041626,
        0.537349045276642
      ],
      "scale": [
        2.53999996185303,
        2.53999996185303,
        2.53999996185303
      ],
      "children": [
        2
      ]
    },
    {
      "name": "Bip001 Pelvis",
      "translation": [
        0,
        0,
        0
      ],
      "rotation": [
        -0.707040131092072,
        -0.0103601524606347,
        -0.0103608323261142,
        0.707021653652191
      ],
      "scale": [
        0.99999988079071,
        0.99999988079071,
        1
      ],
      "children": [
        3
      ]
    },
    {
      "name": "Bip001 Spine",
      "translation": [
        0.0874618217349052,
        0.0043769646435976,
        1.18654568836973e-7
      ],
      "rotation": [
        0.0000115795046440326,
        4.43627840240879e-7,
        -0.0350053869187832,
        0.999387145042419
      ],
      "scale": [
        1,
        1,
        1
      ],
      "children": [
        4,
        16,
        20,
        24,
        25
      ]
    },
    {
      "name": "Bip001 Neck",
      "translation": [
        0.203167110681534,
        -0.072768360376358,
        2.59097578947376e-8
      ],
      "rotation": [
        -0.00322889187373221,
        -0.00495131965726614,
        -0.30356240272522,
        0.95279324054718
      ],
      "scale": [
        1,
        1,
        0.999999940395355
      ],
      "children": [
        5,
        6,
        11
      ]
    },
    {
      "name": "Bip001 Head",
      "translation": [
        0.14036300778389,
        0.0086448285728693,
        -1.84774400224796e-8
      ],
      "rotation": [
        0.00259755807928741,
        0.00282001867890358,
        0.685380578041077,
        0.728174924850464
      ],
      "scale": [
        1.00000023841858,
        1.00000023841858,
        1.00000011920929
      ]
    },
    {
      "name": "Bip001 L Clavicle",
      "translation": [
        -0.0725524872541428,
        0.0373584739863873,
        0.0359292812645435
      ],
      "rotation": [
        0.884365916252136,
        0.339886784553528,
        0.276891678571701,
        0.160327360033989
      ],
      "scale": [
        1.00000011920929,
        1.00000011920929,
        1
      ],
      "children": [
        7
      ]
    },
    {
      "name": "Bip001 L UpperArm",
      "translation": [
        0.0399490855634212,
        0,
        1.77635679969558e-17
      ],
      "rotation": [
        0.75351870059967,
        -0.568525850772858,
        0.00923691503703594,
        -0.330003887414932
      ],
      "scale": [
        1,
        1.00000011920929,
        1
      ],
      "children": [
        8
      ]
    },
    {
      "name": "Bip001 L Forearm",
      "translation": [
        0.116366475820541,
        0,
        -9.53674295089968e-9
      ],
      "rotation": [
        4.691017251007e-19,
        1.22647620386886e-19,
        -0.206425026059151,
        0.978462398052216
      ],
      "scale": [
        1,
        0.999999940395355,
        1
      ],
      "children": [
        9
      ]
    },
    {
      "name": "Bip001 L Hand",
      "translation": [
        0.0922620445489883,
        0,
        -4.76837147544984e-9
      ],
      "rotation": [
        -0.0894280895590782,
        -0.0113508021458983,
        -0.0540783889591694,
        0.994459331035614
      ],
      "scale": [
        0.99999988079071,
        0.999999940395355,
        0.999999940395355
      ],
      "children": [
        10
      ]
    },
    {
      "name": "Bip001 L Finger0",
      "translation": [
        0.070708267390728,
        0,
        -1.19209286886246e-9
      ],
      "rotation": [
        0.0342766232788563,
        -0.0336433425545692,
        0.293838739395142,
        0.954647600650787
      ],
      "scale": [
        1.00000011920929,
        0.999999940395355,
        0.999999940395355
      ]
    },
    {
      "name": "Bip001 R Clavicle",
      "translation": [
        -0.0733499154448509,
        0.0375788100063801,
        -0.0340307503938675
      ],
      "rotation": [
        0.880643427371979,
        0.338907718658447,
        -0.285881191492081,
        -0.166974872350693
      ],
      "scale": [
        1.00000011920929,
        1.00000011920929,
        1.00000011920929
      ],
      "children": [
        12
      ]
    },
    {
      "name": "Bip001 R UpperArm",
      "translation": [
        0.0399490930140018,
        -1.90734859017994e-8,
        1.77635679969558e-17
      ],
      "rotation": [
        0.767776787281036,
        -0.550220966339111,
        0.00802928954362869,
        0.328193843364716
      ],
      "scale": [
        1.00000011920929,
        1.00000011920929,
        0.999999940395355
      ],
      "children": [
        13
      ]
    },
    {
      "name": "Bip001 R Forearm",
      "translation": [
        0.11636646091938,
        1.90734859017994e-8,
        8.88178399847791e-18
      ],
      "rotation": [
        -2.76455444641374e-18,
        -4.43043023244169e-18,
        -0.598009765148163,
        0.801488816738129
      ],
      "scale": [
        0.99999988079071,
        1,
        1
      ],
      "children": [
        14
      ]
    },
    {
      "name": "Bip001 R Hand",
      "translation": [
        0.0922620743513107,
        3.81469718035987e-8,
        -4.76837147544984e-9
      ],
      "rotation": [
        0.0260811187326908,
        -0.00682648597285151,
        0.42228838801384,
        0.906060516834259
      ],
      "scale": [
        0.99999988079071,
        0.999999940395355,
        1.00000011920929
      ],
      "children": [
        15
      ]
    },
    {
      "name": "Bip001 R Finger0",
      "translation": [
        0.0707082822918892,
        -1.90734859017994e-8,
        -8.88178399847791e-18
      ],
      "rotation": [
        -0.015819575637579,
        0.00546485092490911,
        0.378702878952026,
        0.925366938114166
      ],
      "scale": [
        1.00000011920929,
        1.00000011920929,
        1.00000011920929
      ]
    },
    {
      "name": "Bip001 L Thigh",
      "translation": [
        -0.0869413912296295,
        -0.0104842372238636,
        0.0620294064283371
      ],
      "rotation": [
        0.681622624397278,
        0.730379223823547,
        0.010031315498054,
        0.0428497791290283
      ],
      "scale": [
        1.00000011920929,
        1.00000011920929,
        1
      ],
      "children": [
        17
      ]
    },
    {
      "name": "Bip001 L Calf",
      "translation": [
        0.13744430243969,
        0,
        0
      ],
      "rotation": [
        9.18092394084036e-18,
        1.09699931830619e-17,
        -0.808633387088776,
        0.588312864303589
      ],
      "scale": [
        0.99999988079071,
        1,
        0.999999940395355
      ],
      "children": [
        18
      ]
    },
    {
      "name": "Bip001 L Foot",
      "translation": [
        0.0734095573425293,
        -2.8610228852699e-8,
        -4.76837147544984e-9
      ],
      "rotation": [
        -0.0174684710800648,
        0.0358649380505085,
        0.19159346818924,
        0.980663299560547
      ],
      "scale": [
        0.999999940395355,
        0.999999940395355,
        0.99999988079071
      ],
      "children": [
        19
      ]
    },
    {
      "name": "Bip001 L Toe0",
      "translation": [
        0.0420659631490707,
        0.0805667862296104,
        -0.00187597272451967
      ],
      "rotation": [
        -0.013856777921319,
        -0.00127174856606871,
        0.371927797794342,
        0.928157389163971
      ],
      "scale": [
        1.00000011920929,
        1.00000011920929,
        1.00000011920929
      ]
    },
    {
      "name": "Bip001 R Thigh",
      "translation": [
        -0.0869410112500191,
        -0.0104872509837151,
        -0.0620294660329819
      ],
      "rotation": [
        0.542229771614075,
        0.839427769184113,
        -0.00957903638482094,
        -0.0354420840740204
      ],
      "scale": [
        1.00000011920929,
        1.00000023841858,
        1.00000011920929
      ],
      "children": [
        21
      ]
    },
    {
      "name": "Bip001 R Calf",
      "translation": [
        0.137444332242012,
        1.90734859017994e-8,
        4.76837147544984e-9
      ],
      "rotation": [
        7.54296074419755e-19,
        7.5362556181522e-18,
        -0.490067511796951,
        0.871684491634369
      ],
      "scale": [
        1.00000011920929,
        1,
        1
      ],
      "children": [
        22
      ]
    },
    {
      "name": "Bip001 R Foot",
      "translation": [
        0.0734095722436905,
        -3.81469718035987e-8,
        -8.88178399847791e-18
      ],
      "rotation": [
        0.0175702329725027,
        -0.0117131043225527,
        -0.0694655999541283,
        0.997360825538635
      ],
      "scale": [
        0.999999642372131,
        0.99999988079071,
        0.999999821186066
      ],
      "children": [
        23
      ]
    },
    {
      "name": "Bip001 R Toe0",
      "translation": [
        0.0420659072697163,
        0.0805667638778687,
        0.00187596795149148
      ],
      "rotation": [
        -2.87750978600343e-8,
        -2.14532658304734e-8,
        0.238543450832367,
        0.971131801605225
      ],
      "scale": [
        1,
        1,
        0.999999940395355
      ]
    },
    {
      "name": "Bip001 Tail",
      "translation": [
        -0.179031193256378,
        -0.0484114810824394,
        -1.62576910156531e-7
      ],
      "rotation": [
        -6.57633563605486e-7,
        -0.00000255207010013692,
        0.852859199047089,
        0.522140979766846
      ],
      "scale": [
        1.00000011920929,
        1.00000011920929,
        1
      ]
    },
    {
      "name": "Bone_Mount",
      "translation": [
        0.0129654835909605,
        -0.121540598571301,
        -4.34654936043444e-7
      ],
      "rotation": [
        0.700475573539734,
        -0.0966200530529022,
        -0.0966194346547127,
        0.700473606586456
      ],
      "scale": [
        1.00000011920929,
        1,
        0.999999940395355
      ],
      "children": [
        26
      ]
    },
    {
      "name": "Bip002",
      "translation": [
        -4.76837147544984e-9,
        -2.61793503542052e-10,
        3.81469718035987e-8
      ],
      "rotation": [
        -1.09370212886262e-9,
        -1.49011647465613e-8,
        5.87364610282748e-8,
        1
      ],
      "scale": [
        0.999999761581421,
        0.99999988079071,
        1.00000011920929
      ],
      "children": [
        27
      ]
    },
    {
      "name": "Bip001 Pelvis001",
      "translation": [
        0,
        0,
        0
      ],
      "rotation": [
        -0.5,
        -0.5,
        -0.499999314546585,
        0.500000715255737
      ],
      "scale": [
        1.00000011920929,
        1.00000011920929,
        1
      ],
      "children": [
        28,
        39,
        43
      ]
    },
    {
      "name": "Bip001 Spine001",
      "translation": [
        0.0443861745297909,
        -0.0000925970089156181,
        0.0000233177524933126
      ],
      "rotation": [
        -0.120071649551392,
        0.00516955507919192,
        0.133907780051231,
        0.983679234981537
      ],
      "scale": [
        1.00000011920929,
        1.00000011920929,
        1
      ],
      "children": [
        29,
        31,
        35
      ]
    },
    {
      "name": "Bip001 Neck001",
      "translation": [
        0.135830879211426,
        -0.00244145398028195,
        1.56164162490313e-7
      ],
      "rotation": [
        -0.00544384587556124,
        0.00334846740588546,
        0.403803408145905,
        0.914823472499847
      ],
      "scale": [
        1.00000011920929,
        0.999999940395355,
        1
      ],
      "children": [
        30
      ]
    },
    {
      "name": "Bip001 Head001",
      "translation": [
        0.0278382860124111,
        0.00587486242875457,
        7.15255721317476e-9
      ],
      "rotation": [
        0.119639568030834,
        -0.0818638056516647,
        -0.356355875730515,
        0.923035860061646
      ],
      "scale": [
        1.00000011920929,
        0.999999940395355,
        1
      ]
    },
    {
      "name": "Bip001 L Clavicle001",
      "translation": [
        0.111091688275337,
        0.0000104999544419115,
        0.0255353022366762
      ],
      "rotation": [
        0.484840005636215,
        -0.131244614720345,
        0.861577212810516,
        -0.0734147578477859
      ],
      "scale": [
        0.999999940395355,
        1,
        0.999999940395355
      ],
      "children": [
        32
      ]
    },
    {
      "name": "Bip001 L UpperArm001",
      "translation": [
        0.073555201292038,
        4.76837147544984e-9,
        3.81469718035987e-8
      ],
      "rotation": [
        0.159282714128494,
        0.165307775139809,
        0.130506992340088,
        0.964505195617676
      ],
      "scale": [
        1.00000023841858,
        1.00000011920929,
        1.00000035762787
      ],
      "children": [
        33
      ]
    },
    {
      "name": "Bip001 L Forearm001",
      "translation": [
        0.0846369117498398,
        1.90734859017994e-8,
        7.10542719878232e-17
      ],
      "rotation": [
        -2.61736092377335e-17,
        -1.15525847602891e-17,
        -0.789597511291504,
        0.613625168800354
      ],
      "scale": [
        1.00000011920929,
        1.00000011920929,
        1
      ],
      "children": [
        34
      ]
    },
    {
      "name": "Bip001 L Hand001",
      "translation": [
        0.0680278688669205,
        -1.90734859017994e-8,
        0
      ],
      "rotation": [
        -0.745813250541687,
        -0.209115520119667,
        -0.099218562245369,
        0.624651074409485
      ],
      "scale": [
        1,
        1,
        1
      ]
    },
    {
      "name": "Bip001 R Clavicle001",
      "translation": [
        0.111091688275337,
        0.0000106334682641318,
        -0.0255353059619665
      ],
      "rotation": [
        -0.551204025745392,
        0.128791689872742,
        0.819859147071838,
        -0.0861263871192932
      ],
      "scale": [
        1,
        0.999999940395355,
        1
      ],
      "children": [
        36
      ]
    },
    {
      "name": "Bip001 R UpperArm001",
      "translation": [
        0.0735552161931992,
        4.76837147544984e-9,
        -3.81469718035987e-8
      ],
      "rotation": [
        -0.135531842708588,
        -0.249356865882874,
        0.0438358150422573,
        0.957878232002258
      ],
      "scale": [
        1.00000011920929,
        0.999999821186066,
        1
      ],
      "children": [
        37
      ]
    },
    {
      "name": "Bip001 R Forearm001",
      "translation": [
        0.0846369937062263,
        0,
        3.81469718035987e-8
      ],
      "rotation": [
        1.47811997312591e-17,
        -2.72851811623272e-17,
        -0.573422372341156,
        0.819259941577911
      ],
      "scale": [
        1.00000011920929,
        0.999999940395355,
        1
      ],
      "children": [
        38
      ]
    },
    {
      "name": "Bip001 R Hand001",
      "translation": [
        0.0680278539657593,
        -1.90734859017994e-8,
        0
      ],
      "rotation": [
        0.685961961746216,
        0.237501084804535,
        0.317523509263992,
        0.610105097293854
      ],
      "scale": [
        1,
        1.00000011920929,
        0.999999940395355
      ]
    },
    {
      "name": "Bip001 L Thigh001",
      "translation": [
        -7.62939436071974e-8,
        8.10623177471825e-8,
        0.0439732111990452
      ],
      "rotation": [
        0.220170691609383,
        0.924462556838989,
        0.122914172708988,
        -0.285982489585876
      ],
      "scale": [
        1,
        1.00000011920929,
        1.00000011920929
      ],
      "children": [
        40
      ]
    },
    {
      "name": "Bip001 L Calf001",
      "translation": [
        0.0908019244670868,
        0,
        0
      ],
      "rotation": [
        7.56929073027573e-18,
        1.16318046747339e-17,
        -0.545424818992615,
        0.838159739971161
      ],
      "scale": [
        0.99999988079071,
        1.00000011920929,
        1
      ],
      "children": [
        41
      ]
    },
    {
      "name": "Bip001 L Foot001",
      "translation": [
        0.0675665661692619,
        -2.8610228852699e-8,
        -1.90734859017994e-8
      ],
      "rotation": [
        0.0680501610040665,
        -0.0137582523748279,
        0.0931781083345413,
        0.993225932121277
      ],
      "scale": [
        0.999999940395355,
        1,
        0.999999821186066
      ],
      "children": [
        42
      ]
    },
    {
      "name": "Bip001 L Toe001",
      "translation": [
        0.0411565005779266,
        0.091840535402298,
        0
      ],
      "rotation": [
        1.13269649659742e-7,
        -1.34343082436317e-7,
        0.707106709480286,
        0.707106828689575
      ],
      "scale": [
        1,
        1,
        1.00000011920929
      ]
    },
    {
      "name": "Bip001 R Thigh001",
      "translation": [
        -7.10542719878232e-17,
        -5.24520871181267e-8,
        -0.0439732111990452
      ],
      "rotation": [
        0.220170482993126,
        0.924461960792542,
        -0.122915126383305,
        0.28598415851593
      ],
      "scale": [
        0.999999940395355,
        1.00000023841858,
        1.00000011920929
      ],
      "children": [
        44
      ]
    },
    {
      "name": "Bip001 R Calf001",
      "translation": [
        0.090801902115345,
        1.90734859017994e-8,
        -3.55271359939116e-17
      ],
      "rotation": [
        3.8957923832757e-17,
        -4.19089634599338e-17,
        -0.545424818992615,
        0.838159739971161
      ],
      "scale": [
        0.999999821186066,
        0.999999940395355,
        1
      ],
      "children": [
        45
      ]
    },
    {
      "name": "Bip001 R Foot001",
      "translation": [
        0.0675665661692619,
        -1.90734859017994e-8,
        1.90734859017994e-8
      ],
      "rotation": [
        -0.0680502280592918,
        0.0137582905590534,
        0.0931780636310577,
        0.993225932121277
      ],
      "scale": [
        1.00000011920929,
        1,
        0.999999940395355
      ],
      "children": [
        46
      ]
    },
    {
      "name": "Bip001 R Toe001",
      "translation": [
        0.0411565192043781,
        0.091840535402298,
        3.55271359939116e-17
      ],
      "rotation": [
        -1.13269649659742e-7,
        1.34343096647171e-7,
        0.707106709480286,
        0.707106828689575
      ],
      "scale": [
        0.999999940395355,
        1,
        1
      ]
    }
  ]
}