{
  "asset": {
    "generator": "FBX2glTF v0.9.7",
    "version": "2.0"
  },
  "scene": 0,
  "extensionsUsed": [
    "KHR_materials_unlit"
  ],
  "buffers": [
    {
      "byteLength": 11880,
      "uri": "worker_worker_07_attack.bin"
    }
  ],
  "bufferViews": [
    {
      "buffer": 0,
      "byteLength": 132,
      "byteOffset": 0
    },
    {
      "buffer": 0,
      "byteLength": 396,
      "byteOffset": 132
    },
    {
      "buffer": 0,
      "byteLength": 528,
      "byteOffset": 528
    },
    {
      "buffer": 0,
      "byteLength": 396,
      "byteOffset": 1056
    },
    {
      "buffer": 0,
      "byteLength": 528,
      "byteOffset": 1452
    },
    {
      "buffer": 0,
      "byteLength": 396,
      "byteOffset": 1980
    },
    {
      "buffer": 0,
      "byteLength": 528,
      "byteOffset": 2376
    },
    {
      "buffer": 0,
      "byteLength": 528,
      "byteOffset": 2904
    },
    {
      "buffer": 0,
      "byteLength": 528,
      "byteOffset": 3432
    },
    {
      "buffer": 0,
      "byteLength": 528,
      "byteOffset": 3960
    },
    {
      "buffer": 0,
      "byteLength": 528,
      "byteOffset": 4488
    },
    {
      "buffer": 0,
      "byteLength": 528,
      "byteOffset": 5016
    },
    {
      "buffer": 0,
      "byteLength": 528,
      "byteOffset": 5544
    },
    {
      "buffer": 0,
      "byteLength": 528,
      "byteOffset": 6072
    },
    {
      "buffer": 0,
      "byteLength": 528,
      "byteOffset": 6600
    },
    {
      "buffer": 0,
      "byteLength": 528,
      "byteOffset": 7128
    },
    {
      "buffer": 0,
      "byteLength": 528,
      "byteOffset": 7656
    },
    {
      "buffer": 0,
      "byteLength": 528,
      "byteOffset": 8184
    },
    {
      "buffer": 0,
      "byteLength": 528,
      "byteOffset": 8712
    },
    {
      "buffer": 0,
      "byteLength": 528,
      "byteOffset": 9240
    },
    {
      "buffer": 0,
      "byteLength": 528,
      "byteOffset": 9768
    },
    {
      "buffer": 0,
      "byteLength": 528,
      "byteOffset": 10296
    },
    {
      "buffer": 0,
      "byteLength": 528,
      "byteOffset": 10824
    },
    {
      "buffer": 0,
      "byteLength": 528,
      "byteOffset": 11352
    }
  ],
  "scenes": [
    {
      "name": "Root Scene",
      "nodes": [
        0
      ]
    }
  ],
  "accessors": [
    {
      "componentType": 5126,
      "type": "SCALAR",
      "count": 33,
      "bufferView": 0,
      "byteOffset": 0,
      "min": [
        0
      ],
      "max": [
        1.33333337306976
      ]
    },
    {
      "componentType": 5126,
      "type": "VEC3",
      "count": 33,
      "bufferView": 1,
      "byteOffset": 0
    },
    {
      "componentType": 5126,
      "type": "VEC4",
      "count": 33,
      "bufferView": 2,
      "byteOffset": 0
    },
    {
      "componentType": 5126,
      "type": "VEC3",
      "count": 33,
      "bufferView": 3,
      "byteOffset": 0
    },
    {
      "componentType": 5126,
      "type": "VEC4",
      "count": 33,
      "bufferView": 4,
      "byteOffset": 0
    },
    {
      "componentType": 5126,
      "type": "VEC3",
      "count": 33,
      "bufferView": 5,
      "byteOffset": 0
    },
    {
      "componentType": 5126,
      "type": "VEC4",
      "count": 33,
      "bufferView": 6,
      "byteOffset": 0
    },
    {
      "componentType": 5126,
      "type": "VEC4",
      "count": 33,
      "bufferView": 7,
      "byteOffset": 0
    },
    {
      "componentType": 5126,
      "type": "VEC4",
      "count": 33,
      "bufferView": 8,
      "byteOffset": 0
    },
    {
      "componentType": 5126,
      "type": "VEC4",
      "count": 33,
      "bufferView": 9,
      "byteOffset": 0
    },
    {
      "componentType": 5126,
      "type": "VEC4",
      "count": 33,
      "bufferView": 10,
      "byteOffset": 0
    },
    {
      "componentType": 5126,
      "type": "VEC4",
      "count": 33,
      "bufferView": 11,
      "byteOffset": 0
    },
    {
      "componentType": 5126,
      "type": "VEC4",
      "count": 33,
      "bufferView": 12,
      "byteOffset": 0
    },
    {
      "componentType": 5126,
      "type": "VEC4",
      "count": 33,
      "bufferView": 13,
      "byteOffset": 0
    },
    {
      "componentType": 5126,
      "type": "VEC4",
      "count": 33,
      "bufferView": 14,
      "byteOffset": 0
    },
    {
      "componentType": 5126,
      "type": "VEC4",
      "count": 33,
      "bufferView": 15,
      "byteOffset": 0
    },
    {
      "componentType": 5126,
      "type": "VEC4",
      "count": 33,
      "bufferView": 16,
      "byteOffset": 0
    },
    {
      "componentType": 5126,
      "type": "VEC4",
      "count": 33,
      "bufferView": 17,
      "byteOffset": 0
    },
    {
      "componentType": 5126,
      "type": "VEC4",
      "count": 33,
      "bufferView": 18,
      "byteOffset": 0
    },
    {
      "componentType": 5126,
      "type": "VEC4",
      "count": 33,
      "bufferView": 19,
      "byteOffset": 0
    },
    {
      "componentType": 5126,
      "type": "VEC4",
      "count": 33,
      "bufferView": 20,
      "byteOffset": 0
    },
    {
      "componentType": 5126,
      "type": "VEC4",
      "count": 33,
      "bufferView": 21,
      "byteOffset": 0
    },
    {
      "componentType": 5126,
      "type": "VEC4",
      "count": 33,
      "bufferView": 22,
      "byteOffset": 0
    },
    {
      "componentType": 5126,
      "type": "VEC4",
      "count": 33,
      "bufferView": 23,
      "byteOffset": 0
    }
  ],
  "samplers": [
    {}
  ],
  "animations": [
    {
      "name": "Take 001",
      "channels": [
        {
          "sampler": 0,
          "target": {
            "node": 1,
            "path": "translation"
          }
        },
        {
          "sampler": 1,
          "target": {
            "node": 1,
            "path": "rotation"
          }
        },
        {
          "sampler": 2,
          "target": {
            "node": 3,
            "path": "translation"
          }
        },
        {
          "sampler": 3,
          "target": {
            "node": 3,
            "path": "rotation"
          }
        },
        {
          "sampler": 4,
          "target": {
            "node": 4,
            "path": "translation"
          }
        },
        {
          "sampler": 5,
          "target": {
            "node": 4,
            "path": "rotation"
          }
        },
        {
          "sampler": 6,
          "target": {
            "node": 5,
            "path": "rotation"
          }
        },
        {
          "sampler": 7,
          "target": {
            "node": 6,
            "path": "rotation"
          }
        },
        {
          "sampler": 8,
          "target": {
            "node": 7,
            "path": "rotation"
          }
        },
        {
          "sampler": 9,
          "target": {
            "node": 8,
            "path": "rotation"
          }
        },
        {
          "sampler": 10,
          "target": {
            "node": 9,
            "path": "rotation"
          }
        },
        {
          "sampler": 11,
          "target": {
            "node": 10,
            "path": "rotation"
          }
        },
        {
          "sampler": 12,
          "target": {
            "node": 11,
            "path": "rotation"
          }
        },
        {
          "sampler": 13,
          "target": {
            "node": 12,
            "path": "rotation"
          }
        },
        {
          "sampler": 14,
          "target": {
            "node": 13,
            "path": "rotation"
          }
        },
        {
          "sampler": 15,
          "target": {
            "node": 16,
            "path": "rotation"
          }
        },
        {
          "sampler": 16,
          "target": {
            "node": 17,
            "path": "rotation"
          }
        },
        {
          "sampler": 17,
          "target": {
            "node": 18,
            "path": "rotation"
          }
        },
        {
          "sampler": 18,
          "target": {
            "node": 19,
            "path": "rotation"
          }
        },
        {
          "sampler": 19,
          "target": {
            "node": 20,
            "path": "rotation"
          }
        },
        {
          "sampler": 20,
          "target": {
            "node": 21,
            "path": "rotation"
          }
        },
        {
          "sampler": 21,
          "target": {
            "node": 22,
            "path": "rotation"
          }
        },
        {
          "sampler": 22,
          "target": {
            "node": 23,
            "path": "rotation"
          }
        }
      ],
      "samplers": [
        {
          "input": 0,
          "interpolation": "LINEAR",
          "output": 1
        },
        {
          "input": 0,
          "interpolation": "LINEAR",
          "output": 2
        },
        {
          "input": 0,
          "interpolation": "LINEAR",
          "output": 3
        },
        {
          "input": 0,
          "interpolation": "LINEAR",
          "output": 4
        },
        {
          "input": 0,
          "interpolation": "LINEAR",
          "output": 5
        },
        {
          "input": 0,
          "interpolation": "LINEAR",
          "output": 6
        },
        {
          "input": 0,
          "interpolation": "LINEAR",
          "output": 7
        },
        {
          "input": 0,
          "interpolation": "LINEAR",
          "output": 8
        },
        {
          "input": 0,
          "interpolation": "LINEAR",
          "output": 9
        },
        {
          "input": 0,
          "interpolation": "LINEAR",
          "output": 10
        },
        {
          "input": 0,
          "interpolation": "LINEAR",
          "output": 11
        },
        {
          "input": 0,
          "interpolation": "LINEAR",
          "output": 12
        },
        {
          "input": 0,
          "interpolation": "LINEAR",
          "output": 13
        },
        {
          "input": 0,
          "interpolation": "LINEAR",
          "output": 14
        },
        {
          "input": 0,
          "interpolation": "LINEAR",
          "output": 15
        },
        {
          "input": 0,
          "interpolation": "LINEAR",
          "output": 16
        },
        {
          "input": 0,
          "interpolation": "LINEAR",
          "output": 17
        },
        {
          "input": 0,
          "interpolation": "LINEAR",
          "output": 18
        },
        {
          "input": 0,
          "interpolation": "LINEAR",
          "output": 19
        },
        {
          "input": 0,
          "interpolation": "LINEAR",
          "output": 20
        },
        {
          "input": 0,
          "interpolation": "LINEAR",
          "output": 21
        },
        {
          "input": 0,
          "interpolation": "LINEAR",
          "output": 22
        },
        {
          "input": 0,
          "interpolation": "LINEAR",
          "output": 23
        }
      ]
    }
  ],
  "nodes": [
    {
      "name": "RootNode",
      "translation": [
        0,
        0,
        0
      ],
      "rotation": [
        0,
        0,
        0,
        1
      ],
      "scale": [
        1,
        1,
        1
      ],
      "children": [
        1
      ]
    },
    {
      "name": "Bip001",
      "translation": [
        -0.0236854832619429,
        0.470947474241257,
        -0.0620680749416351
      ],
      "rotation": [
        0.506080985069275,
        0.501089215278625,
        0.49430176615715,
        -0.498454988002777
      ],
      "scale": [
        2.53999996185303,
        2.53999996185303,
        2.53999996185303
      ],
      "children": [
        2
      ]
    },
    {
      "name": "Bip001 Pelvis",
      "translation": [
        0,
        0,
        0
      ],
      "rotation": [
        0.55412483215332,
        0.432497829198837,
        0.544177055358887,
        -0.457998484373093
      ],
      "scale": [
        1.00000011920929,
        1,
        1.00000011920929
      ],
      "children": [
        3,
        16,
        20
      ]
    },
    {
      "name": "Bip001 Spine",
      "translation": [
        0.0443249493837357,
        -0.0017341923667118,
        0.000528653850778937
      ],
      "rotation": [
        -0.030091704800725,
        0.0100920153781772,
        -0.00927251204848289,
        0.999453186988831
      ],
      "scale": [
        1,
        1.00000011920929,
        1.00000011920929
      ],
      "children": [
        4,
        6,
        10,
        14,
        15
      ]
    },
    {
      "name": "Bip001 Neck",
      "translation": [
        0.135826110839844,
        -0.00244540674611926,
        -6.24656649961253e-7
      ],
      "rotation": [
        0.0061347302980721,
        0.0293704140931368,
        0.273007184267044,
        0.96154397726059
      ],
      "scale": [
        1.00000011920929,
        1.00000011920929,
        1
      ],
      "children": [
        5
      ]
    },
    {
      "name": "Bip001 Head",
      "translation": [
        0.0278383065015078,
        0.00587482424452901,
        9.53674295089968e-9
      ],
      "rotation": [
        0.133329182863235,
        -0.0868914276361465,
        -0.226594924926758,
        0.960899531841278
      ],
      "scale": [
        1,
        0.999999940395355,
        0.999999940395355
      ]
    },
    {
      "name": "Bip001 L Clavicle",
      "translation": [
        0.111091688275337,
        0.0000105023382275249,
        0.0255353059619665
      ],
      "rotation": [
        0.525794267654419,
        -0.0350670851767063,
        0.849623322486877,
        -0.0212344229221344
      ],
      "scale": [
        1,
        1,
        1
      ],
      "children": [
        7
      ]
    },
    {
      "name": "Bip001 L UpperArm",
      "translation": [
        0.0735552087426186,
        2.38418573772492e-9,
        1.90734859017994e-8
      ],
      "rotation": [
        0.17896369099617,
        0.35078427195549,
        0.0953865572810173,
        0.914233982563019
      ],
      "scale": [
        1.00000011920929,
        1.00000011920929,
        1.00000011920929
      ],
      "children": [
        8
      ]
    },
    {
      "name": "Bip001 L Forearm",
      "translation": [
        0.084636963903904,
        0,
        3.55271359939116e-17
      ],
      "rotation": [
        1.26478306211328e-17,
        -3.71587960742868e-17,
        -0.441550314426422,
        0.897236466407776
      ],
      "scale": [
        1,
        1,
        1
      ],
      "children": [
        9
      ]
    },
    {
      "name": "Bip001 L Hand",
      "translation": [
        0.0680278316140175,
        -1.43051144263495e-8,
        1.90734859017994e-8
      ],
      "rotation": [
        -0.691332459449768,
        -0.00914200767874718,
        -0.0220429506152868,
        0.72214263677597
      ],
      "scale": [
        1,
        1,
        1
      ]
    },
    {
      "name": "Bip001 R Clavicle",
      "translation": [
        0.111091762781143,
        0.0000106406205304665,
        -0.0255353040993214
      ],
      "rotation": [
        -0.596158623695374,
        0.0570854693651199,
        0.799729347229004,
        -0.0420616082847118
      ],
      "scale": [
        1,
        1.00000011920929,
        1
      ],
      "children": [
        11
      ]
    },
    {
      "name": "Bip001 R UpperArm",
      "translation": [
        0.0735552087426186,
        -2.38418573772492e-9,
        -7.10542719878232e-17
      ],
      "rotation": [
        -0.110065445303917,
        -0.410950988531113,
        0.0451077558100224,
        0.903864026069641
      ],
      "scale": [
        1.00000011920929,
        1,
        1
      ],
      "children": [
        12
      ]
    },
    {
      "name": "Bip001 R Forearm",
      "translation": [
        0.084636963903904,
        0,
        1.90734859017994e-8
      ],
      "rotation": [
        -2.15948287119238e-17,
        5.47753310630001e-17,
        -0.398484528064728,
        0.917175054550171
      ],
      "scale": [
        1,
        1.00000011920929,
        1.00000011920929
      ],
      "children": [
        13
      ]
    },
    {
      "name": "Bip001 R Hand",
      "translation": [
        0.0680278986692429,
        4.76837147544984e-9,
        -1.90734859017994e-8
      ],
      "rotation": [
        0.655707478523254,
        0.158392056822777,
        0.181992828845978,
        0.715428709983826
      ],
      "scale": [
        1,
        0.999999940395355,
        1
      ]
    },
    {
      "name": "Bone_wood",
      "translation": [
        0.0774291008710861,
        0.0149809811264277,
        0.00464731315150857
      ],
      "rotation": [
        0.760262310504913,
        -0.264469355344772,
        0.572682797908783,
        -0.155214592814445
      ],
      "scale": [
        0.0789991021156311,
        0.0789991244673729,
        0.0789990723133087
      ]
    },
    {
      "name": "Bone_bag",
      "translation": [
        0.0743999630212784,
        0.00463835941627622,
        0.00215848558582366
      ],
      "rotation": [
        -0.499800711870193,
        0.500199317932129,
        -0.500198543071747,
        0.499801307916641
      ],
      "scale": [
        0.0266571138054132,
        0.0266571156680584,
        0.0266571063548326
      ]
    },
    {
      "name": "Bip001 L Thigh",
      "translation": [
        -7.62939436071974e-8,
        6.91413859499335e-8,
        0.0439732111990452
      ],
      "rotation": [
        0.222522646188736,
        0.963269770145416,
        0.120855771005154,
        -0.0893805995583534
      ],
      "scale": [
        1.00000011920929,
        1,
        1
      ],
      "children": [
        17
      ]
    },
    {
      "name": "Bip001 L Calf",
      "translation": [
        0.090801902115345,
        1.77635679969558e-17,
        4.76837147544984e-9
      ],
      "rotation": [
        2.28988698486269e-18,
        -1.37970524984874e-17,
        -0.347286641597748,
        0.937759041786194
      ],
      "scale": [
        1.00000011920929,
        1,
        1
      ],
      "children": [
        18
      ]
    },
    {
      "name": "Bip001 L Foot",
      "translation": [
        0.0675665438175201,
        -1.19209286886246e-9,
        -4.76837147544984e-9
      ],
      "rotation": [
        0.0253377202898264,
        -0.0663443207740784,
        0.128842785954475,
        0.989118754863739
      ],
      "scale": [
        0.999999940395355,
        1.00000011920929,
        1
      ],
      "children": [
        19
      ]
    },
    {
      "name": "Bip001 L Toe0",
      "translation": [
        0.0411564968526363,
        0.0918405130505562,
        -4.76837147544984e-9
      ],
      "rotation": [
        0.015374131500721,
        -0.0153755350038409,
        0.706939339637756,
        0.706939876079559
      ],
      "scale": [
        1,
        0.999999940395355,
        1
      ]
    },
    {
      "name": "Bip001 R Thigh",
      "translation": [
        7.62939436071974e-8,
        -5.48362706354055e-8,
        -0.0439732074737549
      ],
      "rotation": [
        0.0832281783223152,
        0.992674589157104,
        -0.0131446700543165,
        0.0865877121686935
      ],
      "scale": [
        1.00000011920929,
        1,
        1
      ],
      "children": [
        21
      ]
    },
    {
      "name": "Bip001 R Calf",
      "translation": [
        0.0908018946647644,
        2.38418573772492e-9,
        0
      ],
      "rotation": [
        2.59756814607618e-17,
        -9.77936347142348e-18,
        -0.35233873128891,
        0.935872554779053
      ],
      "scale": [
        0.99999988079071,
        1,
        0.999999940395355
      ],
      "children": [
        22
      ]
    },
    {
      "name": "Bip001 R Foot",
      "translation": [
        0.0675665512681007,
        -9.53674295089968e-9,
        0
      ],
      "rotation": [
        -0.0174286216497421,
        0.0769061371684074,
        0.281222313642502,
        0.956397235393524
      ],
      "scale": [
        1.00000011920929,
        0.999999940395355,
        1
      ],
      "children": [
        23
      ]
    },
    {
      "name": "Bip001 R Toe0",
      "translation": [
        0.0411565043032169,
        0.091840535402298,
        0
      ],
      "rotation": [
        -0.0868574753403664,
        0.0868579894304276,
        0.701752126216888,
        0.701751708984375
      ],
      "scale": [
        0.999999940395355,
        1,
        0.999999940395355
      ]
    }
  ]
}