{
  "asset": {
    "generator": "FBX2glTF v0.9.7",
    "version": "2.0"
  },
  "scene": 0,
  "extensionsUsed": [
    "KHR_materials_unlit"
  ],
  "buffers": [
    {
      "byteLength": 2528,
      "uri": "UD_Shield_C.bin"
    }
  ],
  "bufferViews": [
    {
      "buffer": 0,
      "byteLength": 288,
      "byteOffset": 0,
      "target": 34963
    },
    {
      "buffer": 0,
      "byteLength": 672,
      "byteOffset": 288,
      "target": 34962
    },
    {
      "buffer": 0,
      "byteLength": 672,
      "byteOffset": 960,
      "target": 34962
    },
    {
      "buffer": 0,
      "byteLength": 448,
      "byteOffset": 1632,
      "target": 34962
    },
    {
      "buffer": 0,
      "byteLength": 448,
      "byteOffset": 2080,
      "target": 34962
    }
  ],
  "scenes": [
    {
      "name": "Root Scene",
      "nodes": [
        0
      ]
    }
  ],
  "accessors": [
    {
      "componentType": 5123,
      "type": "SCALAR",
      "count": 144,
      "bufferView": 0,
      "byteOffset": 0
    },
    {
      "componentType": 5126,
      "type": "VEC3",
      "count": 56,
      "bufferView": 1,
      "byteOffset": 0,
      "min": [
        -0.033345852047205,
        -0.147871568799019,
        -0.138224452733994
      ],
      "max": [
        0.056804321706295,
        0.246795132756233,
        0.136704742908478
      ]
    },
    {
      "componentType": 5126,
      "type": "VEC3",
      "count": 56,
      "bufferView": 2,
      "byteOffset": 0
    },
    {
      "componentType": 5126,
      "type": "VEC2",
      "count": 56,
      "bufferView": 3,
      "byteOffset": 0
    },
    {
      "componentType": 5126,
      "type": "VEC2",
      "count": 56,
      "bufferView": 4,
      "byteOffset": 0
    }
  ],
  "images": [
    {
      "name": "Map #11",
      "uri": "../textures/UD_Standard_Units.png"
    }
  ],
  "samplers": [
    {}
  ],
  "textures": [
    {
      "name": "Map #11",
      "sampler": 0,
      "source": 0
    }
  ],
  "materials": [
    {
      "name": "Undead_Standard_Units",
      "alphaMode": "OPAQUE",
      "extras": {
        "fromFBX": {
          "shadingModel": "Phong",
          "isTruePBR": false
        }
      },
      "pbrMetallicRoughness": {
        "baseColorTexture": {
          "index": 0,
          "texCoord": 0
        },
        "baseColorFactor": [
          1,
          1,
          1,
          1
        ],
        "metallicFactor": 0,
        "roughnessFactor": 1
      },
      "extensions": {
        "KHR_materials_unlit": {}
      }
    }
  ],
  "meshes": [
    {
      "name": "UD_Shield_C",
      "primitives": [
        {
          "material": 0,
          "mode": 4,
          "attributes": {
            "NORMAL": 2,
            "POSITION": 1,
            "TEXCOORD_0": 3,
            "TEXCOORD_1": 4
          },
          "indices": 0
        }
      ]
    }
  ],
  "nodes": [
    {
      "name": "RootNode",
      "translation": [
        0,
        0,
        0
      ],
      "rotation": [
        0,
        0,
        0,
        1
      ],
      "scale": [
        1,
        1,
        1
      ],
      "children": [
        1
      ]
    },
    {
      "name": "UD_Shield_C",
      "translation": [
        0,
        -3.76158113790418e-39,
        -9.68933093759006e-8
      ],
      "rotation": [
        -0.707106828689575,
        -1.11952722647857e-8,
        4.67567105033595e-8,
        0.707106709480286
      ],
      "scale": [
        2.53999710083008,
        2.54000067710876,
        2.54000210762024
      ],
      "mesh": 0
    }
  ]
}