{
  "asset": {
    "generator": "FBX2glTF v0.9.7",
    "version": "2.0"
  },
  "scene": 0,
  "extensionsUsed": [
    "KHR_materials_unlit"
  ],
  "buffers": [
    {
      "byteLength": 5940,
      "uri": "UD_weapon_staff_B.bin"
    }
  ],
  "bufferViews": [
    {
      "buffer": 0,
      "byteLength": 780,
      "byteOffset": 0,
      "target": 34963
    },
    {
      "buffer": 0,
      "byteLength": 1548,
      "byteOffset": 780,
      "target": 34962
    },
    {
      "buffer": 0,
      "byteLength": 1548,
      "byteOffset": 2328,
      "target": 34962
    },
    {
      "buffer": 0,
      "byteLength": 1032,
      "byteOffset": 3876,
      "target": 34962
    },
    {
      "buffer": 0,
      "byteLength": 1032,
      "byteOffset": 4908,
      "target": 34962
    }
  ],
  "scenes": [
    {
      "name": "Root Scene",
      "nodes": [
        0
      ]
    }
  ],
  "accessors": [
    {
      "componentType": 5123,
      "type": "SCALAR",
      "count": 390,
      "bufferView": 0,
      "byteOffset": 0
    },
    {
      "componentType": 5126,
      "type": "VEC3",
      "count": 129,
      "bufferView": 1,
      "byteOffset": 0,
      "min": [
        -0.370521873235703,
        -0.0415745452046394,
        -0.0590913668274879
      ],
      "max": [
        0.387116611003876,
        0.0423848330974579,
        0.0921764373779297
      ]
    },
    {
      "componentType": 5126,
      "type": "VEC3",
      "count": 129,
      "bufferView": 2,
      "byteOffset": 0
    },
    {
      "componentType": 5126,
      "type": "VEC2",
      "count": 129,
      "bufferView": 3,
      "byteOffset": 0
    },
    {
      "componentType": 5126,
      "type": "VEC2",
      "count": 129,
      "bufferView": 4,
      "byteOffset": 0
    }
  ],
  "images": [
    {
      "name": "Map #11",
      "uri": "../textures/UD_Standard_Units.png"
    }
  ],
  "samplers": [
    {}
  ],
  "textures": [
    {
      "name": "Map #11",
      "sampler": 0,
      "source": 0
    }
  ],
  "materials": [
    {
      "name": "Undead_Standard_Units",
      "alphaMode": "OPAQUE",
      "extras": {
        "fromFBX": {
          "shadingModel": "Phong",
          "isTruePBR": false
        }
      },
      "pbrMetallicRoughness": {
        "baseColorTexture": {
          "index": 0,
          "texCoord": 0
        },
        "baseColorFactor": [
          1,
          1,
          1,
          1
        ],
        "metallicFactor": 0,
        "roughnessFactor": 1
      },
      "extensions": {
        "KHR_materials_unlit": {}
      }
    }
  ],
  "meshes": [
    {
      "name": "UD_weapon_staff_B",
      "primitives": [
        {
          "material": 0,
          "mode": 4,
          "attributes": {
            "NORMAL": 2,
            "POSITION": 1,
            "TEXCOORD_0": 3,
            "TEXCOORD_1": 4
          },
          "indices": 0
        }
      ]
    }
  ],
  "nodes": [
    {
      "name": "RootNode",
      "translation": [
        0,
        0,
        0
      ],
      "rotation": [
        0,
        0,
        0,
        1
      ],
      "scale": [
        1,
        1,
        1
      ],
      "children": [
        1
      ]
    },
    {
      "name": "UD_weapon_staff_B",
      "translation": [
        2.80259692864963e-45,
        -1.50463273542136e-38,
        -3.87573237503602e-7
      ],
      "rotation": [
        -0.707106709480286,
        1.84392376922915e-8,
        -8.69278906634463e-8,
        0.70710688829422
      ],
      "scale": [
        2.53999972343445,
        2.54000115394592,
        2.53999996185303
      ],
      "mesh": 0
    }
  ]
}