{
  "asset": {
    "generator": "FBX2glTF v0.9.7",
    "version": "2.0"
  },
  "scene": 0,
  "extensionsUsed": [
    "KHR_materials_unlit"
  ],
  "buffers": [
    {
      "byteLength": 1444,
      "uri": "UD_weapon_Spear.bin"
    }
  ],
  "bufferViews": [
    {
      "buffer": 0,
      "byteLength": 204,
      "byteOffset": 0,
      "target": 34963
    },
    {
      "buffer": 0,
      "byteLength": 372,
      "byteOffset": 204,
      "target": 34962
    },
    {
      "buffer": 0,
      "byteLength": 372,
      "byteOffset": 576,
      "target": 34962
    },
    {
      "buffer": 0,
      "byteLength": 248,
      "byteOffset": 948,
      "target": 34962
    },
    {
      "buffer": 0,
      "byteLength": 248,
      "byteOffset": 1196,
      "target": 34962
    }
  ],
  "scenes": [
    {
      "name": "Root Scene",
      "nodes": [
        0
      ]
    }
  ],
  "accessors": [
    {
      "componentType": 5123,
      "type": "SCALAR",
      "count": 102,
      "bufferView": 0,
      "byteOffset": 0
    },
    {
      "componentType": 5126,
      "type": "VEC3",
      "count": 31,
      "bufferView": 1,
      "byteOffset": 0,
      "min": [
        -0.318230211734772,
        -0.0150000713765621,
        -0.0339006036520004
      ],
      "max": [
        0.450366199016571,
        0.0130238337442279,
        0.0324587225914001
      ]
    },
    {
      "componentType": 5126,
      "type": "VEC3",
      "count": 31,
      "bufferView": 2,
      "byteOffset": 0
    },
    {
      "componentType": 5126,
      "type": "VEC2",
      "count": 31,
      "bufferView": 3,
      "byteOffset": 0
    },
    {
      "componentType": 5126,
      "type": "VEC2",
      "count": 31,
      "bufferView": 4,
      "byteOffset": 0
    }
  ],
  "images": [
    {
      "name": "Map #11",
      "uri": "../textures/UD_Standard_Units.png"
    }
  ],
  "samplers": [
    {}
  ],
  "textures": [
    {
      "name": "Map #11",
      "sampler": 0,
      "source": 0
    }
  ],
  "materials": [
    {
      "name": "Undead_Standard_Units",
      "alphaMode": "OPAQUE",
      "extras": {
        "fromFBX": {
          "shadingModel": "Phong",
          "isTruePBR": false
        }
      },
      "pbrMetallicRoughness": {
        "baseColorTexture": {
          "index": 0,
          "texCoord": 0
        },
        "baseColorFactor": [
          1,
          1,
          1,
          1
        ],
        "metallicFactor": 0,
        "roughnessFactor": 1
      },
      "extensions": {
        "KHR_materials_unlit": {}
      }
    }
  ],
  "meshes": [
    {
      "name": "UD_weapon_Spear",
      "primitives": [
        {
          "material": 0,
          "mode": 4,
          "attributes": {
            "NORMAL": 2,
            "POSITION": 1,
            "TEXCOORD_0": 3,
            "TEXCOORD_1": 4
          },
          "indices": 0
        }
      ]
    }
  ],
  "nodes": [
    {
      "name": "RootNode",
      "translation": [
        0,
        0,
        0
      ],
      "rotation": [
        0,
        0,
        0,
        1
      ],
      "scale": [
        1,
        1,
        1
      ],
      "children": [
        1
      ]
    },
    {
      "name": "UD_weapon_Spear",
      "translation": [
        0,
        0,
        0
      ],
      "rotation": [
        -0.70710676908493,
        3.68784931481514e-8,
        -2.63417803125776e-8,
        0.70710676908493
      ],
      "scale": [
        2.53999972343445,
        2.54000091552734,
        2.54000020027161
      ],
      "mesh": 0
    }
  ]
}