{
  "asset": {
    "generator": "FBX2glTF v0.9.7",
    "version": "2.0"
  },
  "scene": 0,
  "extensionsUsed": [
    "KHR_materials_unlit"
  ],
  "buffers": [
    {
      "byteLength": 3948,
      "uri": "ORC_Shield_D.bin"
    }
  ],
  "bufferViews": [
    {
      "buffer": 0,
      "byteLength": 348,
      "byteOffset": 0,
      "target": 34963
    },
    {
      "buffer": 0,
      "byteLength": 1080,
      "byteOffset": 348,
      "target": 34962
    },
    {
      "buffer": 0,
      "byteLength": 1080,
      "byteOffset": 1428,
      "target": 34962
    },
    {
      "buffer": 0,
      "byteLength": 720,
      "byteOffset": 2508,
      "target": 34962
    },
    {
      "buffer": 0,
      "byteLength": 720,
      "byteOffset": 3228,
      "target": 34962
    }
  ],
  "scenes": [
    {
      "name": "Root Scene",
      "nodes": [
        0
      ]
    }
  ],
  "accessors": [
    {
      "componentType": 5123,
      "type": "SCALAR",
      "count": 174,
      "bufferView": 0,
      "byteOffset": 0
    },
    {
      "componentType": 5126,
      "type": "VEC3",
      "count": 90,
      "bufferView": 1,
      "byteOffset": 0,
      "min": [
        -0.0192958377301693,
        -0.251391410827637,
        -0.130922392010689
      ],
      "max": [
        0.074208103120327,
        0.225152924656868,
        0.131335541605949
      ]
    },
    {
      "componentType": 5126,
      "type": "VEC3",
      "count": 90,
      "bufferView": 2,
      "byteOffset": 0
    },
    {
      "componentType": 5126,
      "type": "VEC2",
      "count": 90,
      "bufferView": 3,
      "byteOffset": 0
    },
    {
      "componentType": 5126,
      "type": "VEC2",
      "count": 90,
      "bufferView": 4,
      "byteOffset": 0
    }
  ],
  "images": [
    {
      "name": "Map #11",
      "uri": "../textures/ORC_StandardUnits.png"
    }
  ],
  "samplers": [
    {}
  ],
  "textures": [
    {
      "name": "Map #11",
      "sampler": 0,
      "source": 0
    }
  ],
  "materials": [
    {
      "name": "Orc_Standard_Units",
      "alphaMode": "OPAQUE",
      "extras": {
        "fromFBX": {
          "shadingModel": "Phong",
          "isTruePBR": false
        }
      },
      "pbrMetallicRoughness": {
        "baseColorTexture": {
          "index": 0,
          "texCoord": 0
        },
        "baseColorFactor": [
          1,
          1,
          1,
          1
        ],
        "metallicFactor": 0,
        "roughnessFactor": 1
      },
      "extensions": {
        "KHR_materials_unlit": {}
      }
    }
  ],
  "meshes": [
    {
      "name": "ORC_Shield_D",
      "primitives": [
        {
          "material": 0,
          "mode": 4,
          "attributes": {
            "NORMAL": 2,
            "POSITION": 1,
            "TEXCOORD_0": 3,
            "TEXCOORD_1": 4
          },
          "indices": 0
        }
      ]
    }
  ],
  "nodes": [
    {
      "name": "RootNode",
      "translation": [
        0,
        0,
        0
      ],
      "rotation": [
        0,
        0,
        0,
        1
      ],
      "scale": [
        1,
        1,
        1
      ],
      "children": [
        1
      ]
    },
    {
      "name": "ORC_Shield_D",
      "translation": [
        0,
        -4.70197291913406e-40,
        -2.42233273439751e-8
      ],
      "rotation": [
        -0.70710700750351,
        -1.51465684439245e-8,
        9.02206949149331e-8,
        0.707106590270996
      ],
      "scale": [
        2.53999733924866,
        2.53999996185303,
        2.54000163078308
      ],
      "mesh": 0
    }
  ]
}