{
  "asset": {
    "generator": "FBX2glTF v0.9.7",
    "version": "2.0"
  },
  "scene": 0,
  "extensionsUsed": [
    "KHR_materials_unlit"
  ],
  "buffers": [
    {
      "byteLength": 2320,
      "uri": "ELF_bolt.bin"
    }
  ],
  "bufferViews": [
    {
      "buffer": 0,
      "byteLength": 336,
      "byteOffset": 0,
      "target": 34963
    },
    {
      "buffer": 0,
      "byteLength": 744,
      "byteOffset": 336,
      "target": 34962
    },
    {
      "buffer": 0,
      "byteLength": 744,
      "byteOffset": 1080,
      "target": 34962
    },
    {
      "buffer": 0,
      "byteLength": 496,
      "byteOffset": 1824,
      "target": 34962
    }
  ],
  "scenes": [
    {
      "name": "Root Scene",
      "nodes": [
        0
      ]
    }
  ],
  "accessors": [
    {
      "componentType": 5123,
      "type": "SCALAR",
      "count": 168,
      "bufferView": 0,
      "byteOffset": 0
    },
    {
      "componentType": 5126,
      "type": "VEC3",
      "count": 62,
      "bufferView": 1,
      "byteOffset": 0,
      "min": [
        -0.0690116882324219,
        -0.412758976221085,
        -0.0661631152033806
      ],
      "max": [
        0.0690118223428726,
        0.412758976221085,
        0.0661631301045418
      ]
    },
    {
      "componentType": 5126,
      "type": "VEC3",
      "count": 62,
      "bufferView": 2,
      "byteOffset": 0
    },
    {
      "componentType": 5126,
      "type": "VEC2",
      "count": 62,
      "bufferView": 3,
      "byteOffset": 0
    }
  ],
  "images": [
    {
      "name": "Map #9",
      "uri": "../textures/ELF_HighElves_Texture.png"
    }
  ],
  "samplers": [
    {}
  ],
  "textures": [
    {
      "name": "Map #9",
      "sampler": 0,
      "source": 0
    }
  ],
  "materials": [
    {
      "name": "ELF_WoodElf_Standard_Units",
      "alphaMode": "OPAQUE",
      "extras": {
        "fromFBX": {
          "shadingModel": "Phong",
          "isTruePBR": false
        }
      },
      "pbrMetallicRoughness": {
        "baseColorTexture": {
          "index": 0,
          "texCoord": 0
        },
        "baseColorFactor": [
          1,
          1,
          1,
          1
        ],
        "metallicFactor": 0,
        "roughnessFactor": 1
      },
      "extensions": {
        "KHR_materials_unlit": {}
      }
    }
  ],
  "meshes": [
    {
      "name": "ELF_Bolt",
      "primitives": [
        {
          "material": 0,
          "mode": 4,
          "attributes": {
            "NORMAL": 2,
            "POSITION": 1,
            "TEXCOORD_0": 3
          },
          "indices": 0
        }
      ]
    }
  ],
  "nodes": [
    {
      "name": "RootNode",
      "translation": [
        0,
        0,
        0
      ],
      "rotation": [
        0,
        0,
        0,
        1
      ],
      "scale": [
        1,
        1,
        1
      ],
      "children": [
        1
      ]
    },
    {
      "name": "ELF_Bolt",
      "translation": [
        0,
        0,
        0
      ],
      "rotation": [
        -0.70710676908493,
        0,
        0,
        0.70710676908493
      ],
      "scale": [
        2.53999996185303,
        2.53999996185303,
        2.53999996185303
      ],
      "mesh": 0
    }
  ]
}