{
  "asset": {
    "generator": "FBX2glTF v0.9.7",
    "version": "2.0"
  },
  "scene": 0,
  "extensionsUsed": [
    "KHR_materials_unlit"
  ],
  "buffers": [
    {
      "byteLength": 11352,
      "uri": "mage_mage_11_cast_b.bin"
    }
  ],
  "bufferViews": [
    {
      "buffer": 0,
      "byteLength": 132,
      "byteOffset": 0
    },
    {
      "buffer": 0,
      "byteLength": 396,
      "byteOffset": 132
    },
    {
      "buffer": 0,
      "byteLength": 528,
      "byteOffset": 528
    },
    {
      "buffer": 0,
      "byteLength": 528,
      "byteOffset": 1056
    },
    {
      "buffer": 0,
      "byteLength": 396,
      "byteOffset": 1584
    },
    {
      "buffer": 0,
      "byteLength": 528,
      "byteOffset": 1980
    },
    {
      "buffer": 0,
      "byteLength": 528,
      "byteOffset": 2508
    },
    {
      "buffer": 0,
      "byteLength": 528,
      "byteOffset": 3036
    },
    {
      "buffer": 0,
      "byteLength": 528,
      "byteOffset": 3564
    },
    {
      "buffer": 0,
      "byteLength": 528,
      "byteOffset": 4092
    },
    {
      "buffer": 0,
      "byteLength": 528,
      "byteOffset": 4620
    },
    {
      "buffer": 0,
      "byteLength": 528,
      "byteOffset": 5148
    },
    {
      "buffer": 0,
      "byteLength": 396,
      "byteOffset": 5676
    },
    {
      "buffer": 0,
      "byteLength": 528,
      "byteOffset": 6072
    },
    {
      "buffer": 0,
      "byteLength": 528,
      "byteOffset": 6600
    },
    {
      "buffer": 0,
      "byteLength": 528,
      "byteOffset": 7128
    },
    {
      "buffer": 0,
      "byteLength": 528,
      "byteOffset": 7656
    },
    {
      "buffer": 0,
      "byteLength": 528,
      "byteOffset": 8184
    },
    {
      "buffer": 0,
      "byteLength": 528,
      "byteOffset": 8712
    },
    {
      "buffer": 0,
      "byteLength": 528,
      "byteOffset": 9240
    },
    {
      "buffer": 0,
      "byteLength": 528,
      "byteOffset": 9768
    },
    {
      "buffer": 0,
      "byteLength": 528,
      "byteOffset": 10296
    },
    {
      "buffer": 0,
      "byteLength": 528,
      "byteOffset": 10824
    }
  ],
  "scenes": [
    {
      "name": "Root Scene",
      "nodes": [
        0
      ]
    }
  ],
  "accessors": [
    {
      "componentType": 5126,
      "type": "SCALAR",
      "count": 33,
      "bufferView": 0,
      "byteOffset": 0,
      "min": [
        0
      ],
      "max": [
        1.33333337306976
      ]
    },
    {
      "componentType": 5126,
      "type": "VEC3",
      "count": 33,
      "bufferView": 1,
      "byteOffset": 0
    },
    {
      "componentType": 5126,
      "type": "VEC4",
      "count": 33,
      "bufferView": 2,
      "byteOffset": 0
    },
    {
      "componentType": 5126,
      "type": "VEC4",
      "count": 33,
      "bufferView": 3,
      "byteOffset": 0
    },
    {
      "componentType": 5126,
      "type": "VEC3",
      "count": 33,
      "bufferView": 4,
      "byteOffset": 0
    },
    {
      "componentType": 5126,
      "type": "VEC4",
      "count": 33,
      "bufferView": 5,
      "byteOffset": 0
    },
    {
      "componentType": 5126,
      "type": "VEC4",
      "count": 33,
      "bufferView": 6,
      "byteOffset": 0
    },
    {
      "componentType": 5126,
      "type": "VEC4",
      "count": 33,
      "bufferView": 7,
      "byteOffset": 0
    },
    {
      "componentType": 5126,
      "type": "VEC4",
      "count": 33,
      "bufferView": 8,
      "byteOffset": 0
    },
    {
      "componentType": 5126,
      "type": "VEC4",
      "count": 33,
      "bufferView": 9,
      "byteOffset": 0
    },
    {
      "componentType": 5126,
      "type": "VEC4",
      "count": 33,
      "bufferView": 10,
      "byteOffset": 0
    },
    {
      "componentType": 5126,
      "type": "VEC4",
      "count": 33,
      "bufferView": 11,
      "byteOffset": 0
    },
    {
      "componentType": 5126,
      "type": "VEC3",
      "count": 33,
      "bufferView": 12,
      "byteOffset": 0
    },
    {
      "componentType": 5126,
      "type": "VEC4",
      "count": 33,
      "bufferView": 13,
      "byteOffset": 0
    },
    {
      "componentType": 5126,
      "type": "VEC4",
      "count": 33,
      "bufferView": 14,
      "byteOffset": 0
    },
    {
      "componentType": 5126,
      "type": "VEC4",
      "count": 33,
      "bufferView": 15,
      "byteOffset": 0
    },
    {
      "componentType": 5126,
      "type": "VEC4",
      "count": 33,
      "bufferView": 16,
      "byteOffset": 0
    },
    {
      "componentType": 5126,
      "type": "VEC4",
      "count": 33,
      "bufferView": 17,
      "byteOffset": 0
    },
    {
      "componentType": 5126,
      "type": "VEC4",
      "count": 33,
      "bufferView": 18,
      "byteOffset": 0
    },
    {
      "componentType": 5126,
      "type": "VEC4",
      "count": 33,
      "bufferView": 19,
      "byteOffset": 0
    },
    {
      "componentType": 5126,
      "type": "VEC4",
      "count": 33,
      "bufferView": 20,
      "byteOffset": 0
    },
    {
      "componentType": 5126,
      "type": "VEC4",
      "count": 33,
      "bufferView": 21,
      "byteOffset": 0
    },
    {
      "componentType": 5126,
      "type": "VEC4",
      "count": 33,
      "bufferView": 22,
      "byteOffset": 0
    }
  ],
  "samplers": [
    {}
  ],
  "animations": [
    {
      "name": "Take 001",
      "channels": [
        {
          "sampler": 0,
          "target": {
            "node": 1,
            "path": "translation"
          }
        },
        {
          "sampler": 1,
          "target": {
            "node": 1,
            "path": "rotation"
          }
        },
        {
          "sampler": 2,
          "target": {
            "node": 2,
            "path": "rotation"
          }
        },
        {
          "sampler": 3,
          "target": {
            "node": 3,
            "path": "translation"
          }
        },
        {
          "sampler": 4,
          "target": {
            "node": 3,
            "path": "rotation"
          }
        },
        {
          "sampler": 5,
          "target": {
            "node": 5,
            "path": "rotation"
          }
        },
        {
          "sampler": 6,
          "target": {
            "node": 6,
            "path": "rotation"
          }
        },
        {
          "sampler": 7,
          "target": {
            "node": 7,
            "path": "rotation"
          }
        },
        {
          "sampler": 8,
          "target": {
            "node": 8,
            "path": "rotation"
          }
        },
        {
          "sampler": 9,
          "target": {
            "node": 9,
            "path": "rotation"
          }
        },
        {
          "sampler": 10,
          "target": {
            "node": 10,
            "path": "rotation"
          }
        },
        {
          "sampler": 11,
          "target": {
            "node": 11,
            "path": "translation"
          }
        },
        {
          "sampler": 12,
          "target": {
            "node": 11,
            "path": "rotation"
          }
        },
        {
          "sampler": 13,
          "target": {
            "node": 12,
            "path": "rotation"
          }
        },
        {
          "sampler": 14,
          "target": {
            "node": 13,
            "path": "rotation"
          }
        },
        {
          "sampler": 15,
          "target": {
            "node": 14,
            "path": "rotation"
          }
        },
        {
          "sampler": 16,
          "target": {
            "node": 15,
            "path": "rotation"
          }
        },
        {
          "sampler": 17,
          "target": {
            "node": 16,
            "path": "rotation"
          }
        },
        {
          "sampler": 18,
          "target": {
            "node": 18,
            "path": "rotation"
          }
        },
        {
          "sampler": 19,
          "target": {
            "node": 19,
            "path": "rotation"
          }
        },
        {
          "sampler": 20,
          "target": {
            "node": 20,
            "path": "rotation"
          }
        },
        {
          "sampler": 21,
          "target": {
            "node": 21,
            "path": "rotation"
          }
        }
      ],
      "samplers": [
        {
          "input": 0,
          "interpolation": "LINEAR",
          "output": 1
        },
        {
          "input": 0,
          "interpolation": "LINEAR",
          "output": 2
        },
        {
          "input": 0,
          "interpolation": "LINEAR",
          "output": 3
        },
        {
          "input": 0,
          "interpolation": "LINEAR",
          "output": 4
        },
        {
          "input": 0,
          "interpolation": "LINEAR",
          "output": 5
        },
        {
          "input": 0,
          "interpolation": "LINEAR",
          "output": 6
        },
        {
          "input": 0,
          "interpolation": "LINEAR",
          "output": 7
        },
        {
          "input": 0,
          "interpolation": "LINEAR",
          "output": 8
        },
        {
          "input": 0,
          "interpolation": "LINEAR",
          "output": 9
        },
        {
          "input": 0,
          "interpolation": "LINEAR",
          "output": 10
        },
        {
          "input": 0,
          "interpolation": "LINEAR",
          "output": 11
        },
        {
          "input": 0,
          "interpolation": "LINEAR",
          "output": 12
        },
        {
          "input": 0,
          "interpolation": "LINEAR",
          "output": 13
        },
        {
          "input": 0,
          "interpolation": "LINEAR",
          "output": 14
        },
        {
          "input": 0,
          "interpolation": "LINEAR",
          "output": 15
        },
        {
          "input": 0,
          "interpolation": "LINEAR",
          "output": 16
        },
        {
          "input": 0,
          "interpolation": "LINEAR",
          "output": 17
        },
        {
          "input": 0,
          "interpolation": "LINEAR",
          "output": 18
        },
        {
          "input": 0,
          "interpolation": "LINEAR",
          "output": 19
        },
        {
          "input": 0,
          "interpolation": "LINEAR",
          "output": 20
        },
        {
          "input": 0,
          "interpolation": "LINEAR",
          "output": 21
        },
        {
          "input": 0,
          "interpolation": "LINEAR",
          "output": 22
        }
      ]
    }
  ],
  "nodes": [
    {
      "name": "RootNode",
      "translation": [
        0,
        0,
        0
      ],
      "rotation": [
        0,
        0,
        0,
        1
      ],
      "scale": [
        1,
        1,
        1
      ],
      "children": [
        1
      ]
    },
    {
      "name": "Bip001",
      "translation": [
        -0.000076267147960607,
        0.685342252254486,
        -0.0979262739419937
      ],
      "rotation": [
        0.49959796667099,
        0.520467877388,
        0.500685930252075,
        -0.478360414505005
      ],
      "scale": [
        2.53999996185303,
        2.53999972343445,
        2.53999996185303
      ],
      "children": [
        2
      ]
    },
    {
      "name": "Bip001 Pelvis",
      "translation": [
        0,
        0,
        0
      ],
      "rotation": [
        0.55412483215332,
        0.432497799396515,
        0.544177114963531,
        -0.45799845457077
      ],
      "scale": [
        1.00000011920929,
        0.999999940395355,
        1
      ],
      "children": [
        3,
        14,
        18
      ]
    },
    {
      "name": "Bip001 Spine",
      "translation": [
        0.0443350225687027,
        -0.00174340000376105,
        0.000556442129891366
      ],
      "rotation": [
        -0.150691077113152,
        0.00361643685027957,
        0.0366528518497944,
        0.987894594669342
      ],
      "scale": [
        1,
        1.00000023841858,
        1.00000011920929
      ],
      "children": [
        4,
        6,
        10
      ]
    },
    {
      "name": "Bip001 Neck",
      "translation": [
        0.15400119125843,
        -0.00244541163556278,
        -6.27040833478532e-7
      ],
      "rotation": [
        0.00613472238183022,
        0.0293704103678465,
        0.273007184267044,
        0.96154397726059
      ],
      "scale": [
        1,
        1.00000011920929,
        1.00000011920929
      ],
      "children": [
        5
      ]
    },
    {
      "name": "Bip001 Head",
      "translation": [
        0.0278383251279593,
        0.00587482424452901,
        7.15255721317476e-9
      ],
      "rotation": [
        0.229552626609802,
        -0.143404051661491,
        -0.195638686418533,
        0.942584931850433
      ],
      "scale": [
        1,
        1.00000011920929,
        0.999999940395355
      ]
    },
    {
      "name": "Bip001 L Clavicle",
      "translation": [
        0.129266813397408,
        0.0000104999544419115,
        0.0255353040993214
      ],
      "rotation": [
        0.609027683734894,
        -0.0713255107402802,
        0.788044452667236,
        -0.0546254888176918
      ],
      "scale": [
        1,
        0.999999940395355,
        1
      ],
      "children": [
        7
      ]
    },
    {
      "name": "Bip001 L UpperArm",
      "translation": [
        0.0642493367195129,
        0,
        3.81469718035987e-8
      ],
      "rotation": [
        -0.199253752827644,
        0.290672838687897,
        0.0891332626342773,
        0.931591391563416
      ],
      "scale": [
        1.00000011920929,
        1.00000011920929,
        1.00000011920929
      ],
      "children": [
        8
      ]
    },
    {
      "name": "Bip001 L Forearm",
      "translation": [
        0.117239281535149,
        -4.76837147544984e-9,
        0
      ],
      "rotation": [
        -5.76736660502675e-17,
        2.81679218422641e-17,
        -0.706558704376221,
        0.707654416561127
      ],
      "scale": [
        1.00000011920929,
        1.00000011920929,
        1.00000011920929
      ],
      "children": [
        9
      ]
    },
    {
      "name": "Bip001 L Hand",
      "translation": [
        0.0897891595959663,
        -1.90734859017994e-8,
        0
      ],
      "rotation": [
        0.896640956401825,
        0.112120077013969,
        -0.0824826061725616,
        -0.420310229063034
      ],
      "scale": [
        1,
        0.99999988079071,
        1.00000011920929
      ]
    },
    {
      "name": "Bip001 R Clavicle",
      "translation": [
        0.129266813397408,
        0.0000106334682641318,
        -0.0255353134125471
      ],
      "rotation": [
        -0.64738667011261,
        0.150408387184143,
        0.735438346862793,
        -0.131902471184731
      ],
      "scale": [
        1.00000023841858,
        1,
        1
      ],
      "children": [
        11
      ]
    },
    {
      "name": "Bip001 R UpperArm",
      "translation": [
        0.0642493218183517,
        -4.44089199923895e-18,
        3.81469718035987e-8
      ],
      "rotation": [
        -0.24037566781044,
        -0.350877016782761,
        -0.177357017993927,
        0.887496113777161
      ],
      "scale": [
        1.00000011920929,
        1.00000023841858,
        1.00000011920929
      ],
      "children": [
        12
      ]
    },
    {
      "name": "Bip001 R Forearm",
      "translation": [
        0.117239259183407,
        -1.90734859017994e-8,
        1.90734859017994e-8
      ],
      "rotation": [
        1.62848321051458e-17,
        -5.65816023532402e-17,
        -0.483948051929474,
        0.87509673833847
      ],
      "scale": [
        1,
        1.00000011920929,
        1
      ],
      "children": [
        13
      ]
    },
    {
      "name": "Bip001 R Hand",
      "translation": [
        0.0897891223430634,
        2.8610228852699e-8,
        -3.81469718035987e-8
      ],
      "rotation": [
        0.780172109603882,
        0.111413583159447,
        0.235286325216293,
        0.56882232427597
      ],
      "scale": [
        1,
        1.00000011920929,
        0.999999940395355
      ]
    },
    {
      "name": "Bip001 L Thigh",
      "translation": [
        -5.72204577053981e-8,
        7.39097600899186e-8,
        0.0439732223749161
      ],
      "rotation": [
        0.189194917678833,
        0.9599329829216,
        0.177292793989182,
        -0.106307223439217
      ],
      "scale": [
        1,
        1.00000023841858,
        1.00000011920929
      ],
      "children": [
        15
      ]
    },
    {
      "name": "Bip001 L Calf",
      "translation": [
        0.15222279727459,
        -1.77635679969558e-17,
        0
      ],
      "rotation": [
        -7.05498373979537e-18,
        -3.4135682545977e-17,
        -0.20239731669426,
        0.979303479194641
      ],
      "scale": [
        0.999999940395355,
        0.999999940395355,
        1
      ],
      "children": [
        16
      ]
    },
    {
      "name": "Bip001 L Foot",
      "translation": [
        0.0957662388682365,
        -8.88178399847791e-18,
        -9.53674295089968e-9
      ],
      "rotation": [
        0.0497621111571789,
        -0.0774841159582138,
        -0.00601429957896471,
        0.99573278427124
      ],
      "scale": [
        1.00000011920929,
        0.999999940395355,
        0.99999988079071
      ],
      "children": [
        17
      ]
    },
    {
      "name": "Bip001 L Toe0",
      "translation": [
        0.0411565005779266,
        0.0918405205011368,
        -1.77635679969558e-17
      ],
      "rotation": [
        0.0153737831860781,
        -0.0153747014701366,
        0.706939280033112,
        0.706939935684204
      ],
      "scale": [
        1,
        1,
        1.00000011920929
      ]
    },
    {
      "name": "Bip001 R Thigh",
      "translation": [
        5.72204577053981e-8,
        -5.00679000481341e-8,
        -0.0439732149243355
      ],
      "rotation": [
        -0.0425181798636913,
        0.986145615577698,
        -0.0836170241236687,
        0.136810705065727
      ],
      "scale": [
        1.00000011920929,
        1.00000011920929,
        1
      ],
      "children": [
        19
      ]
    },
    {
      "name": "Bip001 R Calf",
      "translation": [
        0.15222279727459,
        4.76837147544984e-9,
        -1.77635679969558e-17
      ],
      "rotation": [
        -2.72158270310483e-17,
        5.44708276815458e-18,
        -0.196251839399338,
        0.980553507804871
      ],
      "scale": [
        1,
        1,
        1
      ],
      "children": [
        20
      ]
    },
    {
      "name": "Bip001 R Foot",
      "translation": [
        0.0957662463188171,
        -9.53674295089968e-9,
        -1.77635679969558e-17
      ],
      "rotation": [
        -0.109001308679581,
        0.107544355094433,
        0.234909906983376,
        0.959880352020264
      ],
      "scale": [
        1,
        1.00000011920929,
        1.00000011920929
      ],
      "children": [
        21
      ]
    },
    {
      "name": "Bip001 R Toe0",
      "translation": [
        0.0411565005779266,
        0.0918405205011368,
        0
      ],
      "rotation": [
        -0.0868581160902977,
        0.0868583992123604,
        0.701752126216888,
        0.701751530170441
      ],
      "scale": [
        1.00000011920929,
        1,
        1.00000011920929
      ]
    }
  ]
}